mtllib material.mtl
usemtl 235,235,235_1
v 0.00000000 -31.93301200 34.06698800
v 0.00000000 -31.93301200 34.06698800
v -31.50000100 -31.50000100 1.50000000
v -1.50000000 -31.50000100 1.50000000
v -0.25000000 -31.50000100 34.49999900
v 0.25000000 -31.50000100 34.49999900
v 1.50000000 -31.50000100 1.50000000
v 31.50000100 -31.50000100 1.50000000
v -31.50000100 -1.50000000 1.50000000
v -1.50000000 -1.50000000 1.50000000
v 1.50000000 -1.50000000 1.50000000
v 31.50000100 -1.50000000 1.50000000
v -31.50000100 -0.25000000 34.49999900
v -0.25000000 -0.25000000 34.49999900
v -0.25000000 -0.25000000 34.49999900
v 0.25000000 -0.25000000 34.49999900
v 0.25000000 -0.25000000 34.49999900
v 31.50000100 -0.25000000 34.49999900
v -31.93301200 -0.00000000 34.06698800
v -31.93301200 -0.00000000 34.06698800
v -0.00000000 -0.00000000 34.06698800
v -0.00000000 -0.00000000 34.06698800
v -0.00000000 -0.00000000 34.06698800
v -0.00000000 -0.00000000 34.06698800
v -0.00000000 -0.00000000 34.06698800
v -0.00000000 -0.00000000 34.06698800
v -0.00000000 -0.00000000 34.06698800
v -0.00000000 -0.00000000 34.06698800
v 31.93301200 0.00000000 34.06698800
v 31.93301200 0.00000000 34.06698800
v -31.50000100 0.25000000 34.49999900
v -0.25000000 0.25000000 34.49999900
v -0.25000000 0.25000000 34.49999900
v 0.25000000 0.25000000 34.49999900
v 0.25000000 0.25000000 34.49999900
v 31.50000100 0.25000000 34.49999900
v -31.50000100 1.50000000 1.50000000
v -1.50000000 1.50000000 1.50000000
v -31.50000100 31.50000100 1.50000000
v -1.50000000 31.50000100 1.50000000
v -0.25000000 31.50000100 34.49999900
v 0.25000000 31.50000100 34.49999900
v -0.00000000 31.93301200 34.06698800
v -0.00000000 31.93301200 34.06698800
vn 0.08660300 0.00000000 0.05000000
vn -0.08660300 -0.00000000 0.05000000
vn 0.00000000 -0.00000000 -0.10000000
vn 0.00000000 -0.00000000 -0.10000000
vn 0.08660300 0.00000000 0.05000000
vn -0.08660300 -0.00000000 0.05000000
vn 0.00000000 -0.00000000 -0.10000000
vn 0.00000000 -0.00000000 -0.10000000
vn 0.00000000 -0.00000000 -0.10000000
vn 0.00000000 -0.00000000 -0.10000000
vn 0.00000000 -0.00000000 -0.10000000
vn 0.00000000 -0.00000000 -0.10000000
vn -0.00000000 0.08660300 0.05000000
vn -0.00000000 0.08660300 0.05000000
vn 0.08660300 0.00000000 0.05000000
vn -0.00000000 0.08660300 0.05000000
vn -0.08660300 -0.00000000 0.05000000
vn -0.00000000 0.08660300 0.05000000
vn -0.00000000 -0.08660300 0.05000000
vn -0.00000000 0.08660300 0.05000000
vn -0.00000000 -0.08660300 0.05000000
vn -0.00000000 0.08660300 0.05000000
vn -0.00000000 0.08660300 0.05000000
vn -0.00000000 -0.08660300 0.05000000
vn 0.08660300 0.00000000 0.05000000
vn -0.08660300 -0.00000000 0.05000000
vn -0.08660300 -0.00000000 0.05000000
vn 0.08660300 0.00000000 0.05000000
vn -0.00000000 -0.08660300 0.05000000
vn -0.00000000 0.08660300 0.05000000
vn -0.00000000 -0.08660300 0.05000000
vn -0.00000000 -0.08660300 0.05000000
vn 0.08660300 0.00000000 0.05000000
vn -0.00000000 -0.08660300 0.05000000
vn -0.08660300 -0.00000000 0.05000000
vn -0.00000000 -0.08660300 0.05000000
vn 0.00000000 -0.00000000 -0.10000000
vn 0.00000000 -0.00000000 -0.10000000
vn 0.00000000 -0.00000000 -0.10000000
vn 0.00000000 -0.00000000 -0.10000000
vn 0.08660300 0.00000000 0.05000000
vn -0.08660300 -0.00000000 0.05000000
vn -0.08660300 -0.00000000 0.05000000
vn 0.08660300 0.00000000 0.05000000
vt -0.05000000 6.64330100
vt -0.00000000 6.64330100
vt -1.50000000 -1.50000000
vt -1.50000000 1.50000000
vt -0.00000000 6.60000000
vt -0.05000000 6.60000000
vt -1.50000000 -1.50000000
vt -1.50000000 1.50000000
vt 1.50000000 -1.50000000
vt 1.50000000 1.50000000
vt 1.50000000 -1.50000000
vt 1.50000000 1.50000000
vt -0.05000000 6.60000000
vt -0.05000000 3.47500000
vt -0.00000000 3.47500000
vt -0.05000000 3.42500000
vt -0.05000000 3.47500000
vt -0.05000000 0.30000000
vt -0.05000000 6.64330100
vt -0.00000000 6.64330100
vt -0.05000000 3.45000000
vt -0.00000000 3.45000000
vt -0.00000000 3.45000000
vt -0.05000000 3.45000000
vt -0.05000000 3.45000000
vt -0.00000000 3.45000000
vt -0.00000000 3.45000000
vt -0.05000000 3.45000000
vt -0.05000000 0.25669900
vt -0.00000000 0.25669900
vt -0.00000000 6.60000000
vt -0.00000000 3.47500000
vt -0.00000000 3.42500000
vt -0.00000000 3.42500000
vt -0.05000000 3.42500000
vt -0.00000000 0.30000000
vt -1.50000000 -1.50000000
vt -1.50000000 1.50000000
vt 1.50000000 -1.50000000
vt 1.50000000 1.50000000
vt -0.00000000 0.30000000
vt -0.05000000 0.30000000
vt -0.00000000 0.25669900
vt -0.05000000 0.25669900
f 32/32/32 31/31/31 24/24/24
f 24/24/24 31/31/31 19/19/19
f 16/16/16 18/18/18 23/23/23
f 23/23/23 18/18/18 30/30/30
f 14/14/14 22/22/22 13/13/13
f 13/13/13 22/22/22 20/20/20
f 34/34/34 21/21/21 36/36/36
f 36/36/36 21/21/21 29/29/29
f 33/33/33 28/28/28 41/41/41
f 41/41/41 28/28/28 44/44/44
f 17/17/17 27/27/27 6/6/6
f 6/6/6 27/27/27 2/2/2
f 35/35/35 42/42/42 26/26/26
f 26/26/26 42/42/42 43/43/43
f 15/15/15 5/5/5 25/25/25
f 25/25/25 5/5/5 1/1/1
f 37/37/37 39/39/39 38/38/38
f 38/38/38 39/39/39 40/40/40
f 7/7/7 11/11/11 8/8/8
f 8/8/8 11/11/11 12/12/12
f 3/3/3 9/9/9 4/4/4
f 4/4/4 9/9/9 10/10/10

