mtllib material.mtl
usemtl 204,0,0
v -34.50000000 -31.50000100 -31.50000100
v -34.50000000 -31.50000100 -31.50000100
v -34.50000000 -31.50000100 -31.50000100
v -34.50000000 -31.50000100 -31.50000100
v -34.50000000 -31.50000100 -0.00000000
v -34.50000000 -31.50000100 -0.00000000
v -34.50000000 -31.50000100 -0.00000000
v -34.50000000 -0.50000000 -0.00000000
v -34.50000000 -0.50000000 -0.00000000
v -34.50000000 0.00000000 -0.86602500
v -34.50000000 0.50000000 0.00000000
v -34.50000000 0.50000000 0.00000000
v -34.50000000 31.50000100 -31.50000100
v -34.50000000 31.50000100 -31.50000100
v -34.50000000 31.50000100 -31.50000100
v -34.50000000 31.50000100 -31.50000100
v -34.50000000 31.50000100 0.00000000
v -34.50000000 31.50000100 0.00000000
v -34.50000000 31.50000100 0.00000000
v -31.50000100 -34.50000000 -31.50000100
v -31.50000100 -34.50000000 -31.50000100
v -31.50000100 -34.50000000 -31.50000100
v -31.50000100 -34.50000000 -31.50000100
v -31.50000100 -34.50000000 -0.00000000
v -31.50000100 -34.50000000 -0.00000000
v -31.50000100 -34.50000000 -0.00000000
v -31.50000100 -31.50000100 -34.50000000
v -31.50000100 -31.50000100 -34.50000000
v -31.50000100 -31.50000100 -34.50000000
v -31.50000100 -31.50000100 -34.50000000
v -31.50000100 31.50000100 -34.50000000
v -31.50000100 31.50000100 -34.50000000
v -31.50000100 31.50000100 -34.50000000
v -31.50000100 31.50000100 -34.50000000
v -31.50000100 34.50000000 -31.50000100
v -31.50000100 34.50000000 -31.50000100
v -31.50000100 34.50000000 -31.50000100
v -31.50000100 34.50000000 -31.50000100
v -31.50000100 34.50000000 0.00000000
v -31.50000100 34.50000000 0.00000000
v -31.50000100 34.50000000 0.00000000
v -0.50000000 -34.50000000 -0.00000000
v -0.50000000 -34.50000000 -0.00000000
v -0.50000000 -0.50000000 -0.00000000
v -0.50000000 0.50000000 0.00000000
v -0.50000000 34.50000000 0.00000000
v -0.50000000 34.50000000 0.00000000
v 0.00000000 -34.50000000 -0.86602500
v 0.00000000 34.50000000 -0.86602500
v 0.50000000 -34.50000000 -0.00000000
v 0.50000000 -34.50000000 -0.00000000
v 0.50000000 -0.50000000 -0.00000000
v 0.50000000 0.50000000 0.00000000
v 0.50000000 34.50000000 0.00000000
v 0.50000000 34.50000000 0.00000000
v 31.50000100 -34.50000000 -31.50000100
v 31.50000100 -34.50000000 -31.50000100
v 31.50000100 -34.50000000 -31.50000100
v 31.50000100 -34.50000000 -31.50000100
v 31.50000100 -34.50000000 -0.00000000
v 31.50000100 -34.50000000 -0.00000000
v 31.50000100 -34.50000000 -0.00000000
v 31.50000100 -31.50000100 -34.50000000
v 31.50000100 -31.50000100 -34.50000000
v 31.50000100 -31.50000100 -34.50000000
v 31.50000100 -31.50000100 -34.50000000
v 31.50000100 31.50000100 -34.50000000
v 31.50000100 31.50000100 -34.50000000
v 31.50000100 31.50000100 -34.50000000
v 31.50000100 31.50000100 -34.50000000
v 31.50000100 34.50000000 -31.50000100
v 31.50000100 34.50000000 -31.50000100
v 31.50000100 34.50000000 -31.50000100
v 31.50000100 34.50000000 -31.50000100
v 31.50000100 34.50000000 0.00000000
v 31.50000100 34.50000000 0.00000000
v 31.50000100 34.50000000 0.00000000
v 34.50000000 -31.50000100 -31.50000100
v 34.50000000 -31.50000100 -31.50000100
v 34.50000000 -31.50000100 -31.50000100
v 34.50000000 -31.50000100 -31.50000100
v 34.50000000 -31.50000100 -0.00000000
v 34.50000000 -31.50000100 -0.00000000
v 34.50000000 -31.50000100 -0.00000000
v 34.50000000 -0.50000000 -0.00000000
v 34.50000000 -0.50000000 -0.00000000
v 34.50000000 0.00000000 -0.86602500
v 34.50000000 0.50000000 0.00000000
v 34.50000000 0.50000000 0.00000000
v 34.50000000 31.50000100 -31.50000100
v 34.50000000 31.50000100 -31.50000100
v 34.50000000 31.50000100 -31.50000100
v 34.50000000 31.50000100 -31.50000100
v 34.50000000 31.50000100 0.00000000
v 34.50000000 31.50000100 0.00000000
v 34.50000000 31.50000100 0.00000000
v -31.50000100 -34.50000000 31.50000000
v -31.50000100 -34.50000000 31.50000000
v -31.50000100 -34.50000000 31.50000000
v -31.50000100 -34.50000000 31.50000000
v -31.50000100 -34.50000000 1.00000000
v -31.50000100 -34.50000000 1.00000000
v -31.50000100 -34.50000000 1.00000000
v 31.50000100 -34.50000000 31.50000000
v 31.50000100 -34.50000000 31.50000000
v 31.50000100 -34.50000000 31.50000000
v 31.50000100 -34.50000000 31.50000000
v 31.50000100 -34.50000000 1.00000000
v 31.50000100 -34.50000000 1.00000000
v 31.50000100 -34.50000000 1.00000000
v 0.00000000 -31.93301200 34.06698800
v -34.50000000 -31.50000100 31.50000000
v -34.50000000 -31.50000100 31.50000000
v -34.50000000 -31.50000100 31.50000000
v -34.50000000 -31.50000100 31.50000000
v -34.50000000 -31.50000100 1.00000000
v -34.50000000 -31.50000100 1.00000000
v -34.50000000 -31.50000100 1.00000000
v -31.50000100 -31.50000100 34.49999900
v -31.50000100 -31.50000100 34.49999900
v -31.50000100 -31.50000100 34.49999900
v -31.50000100 -31.50000100 34.49999900
v -31.50000100 -31.50000100 1.50000000
v -31.50000100 -31.50000100 1.50000000
v -31.50000100 -31.50000100 1.00000000
v -31.50000100 -31.50000100 1.00000000
v -31.50000100 -31.50000100 1.00000000
v -1.50000000 -31.50000100 1.50000000
v -1.50000000 -31.50000100 1.50000000
v -1.50000000 -31.50000100 1.00000000
v -1.50000000 -31.50000100 1.00000000
v -1.50000000 -31.50000100 1.00000000
v -0.25000000 -31.50000100 34.49999900
v -0.25000000 -31.50000100 34.49999900
v 0.25000000 -31.50000100 34.49999900
v 0.25000000 -31.50000100 34.49999900
v 1.50000000 -31.50000100 1.50000000
v 1.50000000 -31.50000100 1.50000000
v 1.50000000 -31.50000100 1.00000000
v 1.50000000 -31.50000100 1.00000000
v 1.50000000 -31.50000100 1.00000000
v 31.50000100 -31.50000100 34.49999900
v 31.50000100 -31.50000100 34.49999900
v 31.50000100 -31.50000100 34.49999900
v 31.50000100 -31.50000100 34.49999900
v 31.50000100 -31.50000100 1.50000000
v 31.50000100 -31.50000100 1.50000000
v 31.50000100 -31.50000100 1.00000000
v 31.50000100 -31.50000100 1.00000000
v 31.50000100 -31.50000100 1.00000000
v 34.50000000 -31.50000100 31.50000000
v 34.50000000 -31.50000100 31.50000000
v 34.50000000 -31.50000100 31.50000000
v 34.50000000 -31.50000100 31.50000000
v 34.50000000 -31.50000100 1.00000000
v 34.50000000 -31.50000100 1.00000000
v 34.50000000 -31.50000100 1.00000000
v -31.50000100 -1.50000000 1.50000000
v -31.50000100 -1.50000000 1.50000000
v -31.50000100 -1.50000000 1.00000000
v -31.50000100 -1.50000000 1.00000000
v -31.50000100 -1.50000000 1.00000000
v -1.50000000 -1.50000000 1.50000000
v -1.50000000 -1.50000000 1.50000000
v -1.50000000 -1.50000000 1.00000000
v -1.50000000 -1.50000000 1.00000000
v -1.50000000 -1.50000000 1.00000000
v 1.50000000 -1.50000000 1.50000000
v 1.50000000 -1.50000000 1.50000000
v 1.50000000 -1.50000000 1.00000000
v 1.50000000 -1.50000000 1.00000000
v 1.50000000 -1.50000000 1.00000000
v 31.50000100 -1.50000000 1.50000000
v 31.50000100 -1.50000000 1.50000000
v 31.50000100 -1.50000000 1.00000000
v 31.50000100 -1.50000000 1.00000000
v 31.50000100 -1.50000000 1.00000000
v -31.50000100 -0.25000000 34.49999900
v -31.50000100 -0.25000000 34.49999900
v -0.25000000 -0.25000000 34.49999900
v 0.25000000 -0.25000000 34.49999900
v 31.50000100 -0.25000000 34.49999900
v 31.50000100 -0.25000000 34.49999900
v -31.93301200 -0.00000000 34.06698800
v 31.93301200 0.00000000 34.06698800
v -31.50000100 0.25000000 34.49999900
v -31.50000100 0.25000000 34.49999900
v -0.25000000 0.25000000 34.49999900
v 0.25000000 0.25000000 34.49999900
v 31.50000100 0.25000000 34.49999900
v 31.50000100 0.25000000 34.49999900
v -31.50000100 1.50000000 1.50000000
v -31.50000100 1.50000000 1.50000000
v -31.50000100 1.50000000 1.00000000
v -31.50000100 1.50000000 1.00000000
v -31.50000100 1.50000000 1.00000000
v -1.50000000 1.50000000 1.50000000
v -1.50000000 1.50000000 1.50000000
v -1.50000000 1.50000000 1.00000000
v -1.50000000 1.50000000 1.00000000
v -1.50000000 1.50000000 1.00000000
v 1.50000000 1.50000000 31.50000000
v 1.50000000 1.50000000 31.50000000
v 1.50000000 1.50000000 31.50000000
v 1.50000000 1.50000000 1.00000000
v 1.50000000 1.50000000 1.00000000
v 1.50000000 1.50000000 1.00000000
v 31.50000100 1.50000000 31.50000000
v 31.50000100 1.50000000 31.50000000
v 31.50000100 1.50000000 31.50000000
v 31.50000100 1.50000000 1.00000000
v 31.50000100 1.50000000 1.00000000
v 31.50000100 1.50000000 1.00000000
v -34.50000000 31.50000100 31.50000000
v -34.50000000 31.50000100 31.50000000
v -34.50000000 31.50000100 31.50000000
v -34.50000000 31.50000100 31.50000000
v -34.50000000 31.50000100 1.00000000
v -34.50000000 31.50000100 1.00000000
v -34.50000000 31.50000100 1.00000000
v -31.50000100 31.50000100 34.49999900
v -31.50000100 31.50000100 34.49999900
v -31.50000100 31.50000100 34.49999900
v -31.50000100 31.50000100 34.49999900
v -31.50000100 31.50000100 1.50000000
v -31.50000100 31.50000100 1.50000000
v -31.50000100 31.50000100 1.00000000
v -31.50000100 31.50000100 1.00000000
v -31.50000100 31.50000100 1.00000000
v -1.50000000 31.50000100 1.50000000
v -1.50000000 31.50000100 1.50000000
v -1.50000000 31.50000100 1.00000000
v -1.50000000 31.50000100 1.00000000
v -1.50000000 31.50000100 1.00000000
v -0.25000000 31.50000100 34.49999900
v -0.25000000 31.50000100 34.49999900
v 0.25000000 31.50000100 34.49999900
v 0.25000000 31.50000100 34.49999900
v 1.50000000 31.50000100 31.50000000
v 1.50000000 31.50000100 31.50000000
v 1.50000000 31.50000100 31.50000000
v 1.50000000 31.50000100 1.00000000
v 1.50000000 31.50000100 1.00000000
v 1.50000000 31.50000100 1.00000000
v 31.50000100 31.50000100 34.49999900
v 31.50000100 31.50000100 34.49999900
v 31.50000100 31.50000100 34.49999900
v 31.50000100 31.50000100 34.49999900
v 31.50000100 31.50000100 31.50000000
v 31.50000100 31.50000100 31.50000000
v 31.50000100 31.50000100 31.50000000
v 31.50000100 31.50000100 1.00000000
v 31.50000100 31.50000100 1.00000000
v 31.50000100 31.50000100 1.00000000
v 34.50000000 31.50000100 31.50000000
v 34.50000000 31.50000100 31.50000000
v 34.50000000 31.50000100 31.50000000
v 34.50000000 31.50000100 31.50000000
v 34.50000000 31.50000100 1.00000000
v 34.50000000 31.50000100 1.00000000
v 34.50000000 31.50000100 1.00000000
v -0.00000000 31.93301200 34.06698800
v -31.50000100 34.50000000 31.50000000
v -31.50000100 34.50000000 31.50000000
v -31.50000100 34.50000000 31.50000000
v -31.50000100 34.50000000 31.50000000
v -31.50000100 34.50000000 1.00000000
v -31.50000100 34.50000000 1.00000000
v -31.50000100 34.50000000 1.00000000
v 31.50000100 34.50000000 31.50000000
v 31.50000100 34.50000000 31.50000000
v 31.50000100 34.50000000 31.50000000
v 31.50000100 34.50000000 31.50000000
v 31.50000100 34.50000000 1.00000000
v 31.50000100 34.50000000 1.00000000
v 31.50000100 34.50000000 1.00000000
v 31.50000100 -34.50000000 0.00000000
v 31.50000100 -34.50000000 0.00000000
v 31.50000100 -34.50000000 0.00000000
v 31.50000100 -34.50000000 1.00000000
v 31.50000100 -34.50000000 1.00000000
v 31.50000100 -34.50000000 1.00000000
v -31.50000100 -34.50000000 -0.00000000
v -31.50000100 -34.50000000 -0.00000000
v -31.50000100 -34.50000000 -0.00000000
v -31.50000100 -34.50000000 1.00000000
v -31.50000100 -34.50000000 1.00000000
v -31.50000100 -34.50000000 1.00000000
v 34.50000000 -31.50000100 0.00000000
v 34.50000000 -31.50000100 0.00000000
v 34.50000000 -31.50000100 0.00000000
v 34.50000000 -31.50000100 1.00000000
v 34.50000000 -31.50000100 1.00000000
v 34.50000000 -31.50000100 1.00000000
v 30.50000000 -31.50000100 1.00000000
v 30.50000000 -31.50000100 1.00000000
v 30.50000000 -31.50000100 1.00000000
v 30.50000000 -31.50000100 1.50000000
v 30.50000000 -31.50000100 1.50000000
v 30.50000000 -31.50000100 1.50000000
v 2.50000000 -31.50000100 1.00000000
v 2.50000000 -31.50000100 1.00000000
v 2.50000000 -31.50000100 1.00000000
v 2.50000000 -31.50000100 1.50000000
v 2.50000000 -31.50000100 1.50000000
v 2.50000000 -31.50000100 1.50000000
v -2.50000000 -31.50000100 1.00000000
v -2.50000000 -31.50000100 1.00000000
v -2.50000000 -31.50000100 1.00000000
v -2.50000000 -31.50000100 1.50000000
v -2.50000000 -31.50000100 1.50000000
v -2.50000000 -31.50000100 1.50000000
v -30.50000000 -31.50000100 1.00000000
v -30.50000000 -31.50000100 1.00000000
v -30.50000000 -31.50000100 1.00000000
v -30.50000000 -31.50000100 1.50000000
v -30.50000000 -31.50000100 1.50000000
v -30.50000000 -31.50000100 1.50000000
v -34.50000000 -31.50000100 -0.00000000
v -34.50000000 -31.50000100 -0.00000000
v -34.50000000 -31.50000100 -0.00000000
v -34.50000000 -31.50000100 1.00000000
v -34.50000000 -31.50000100 1.00000000
v -34.50000000 -31.50000100 1.00000000
v 30.99999900 -31.36602600 1.00000000
v 30.99999900 -31.36602600 1.00000000
v 30.99999900 -31.36602600 1.50000000
v 30.99999900 -31.36602600 1.50000000
v 2.00000000 -31.36602600 1.00000000
v 2.00000000 -31.36602600 1.00000000
v 2.00000000 -31.36602600 1.50000000
v 2.00000000 -31.36602600 1.50000000
v -2.00000000 -31.36602600 1.00000000
v -2.00000000 -31.36602600 1.00000000
v -2.00000000 -31.36602600 1.50000000
v -2.00000000 -31.36602600 1.50000000
v -30.99999900 -31.36602600 1.00000000
v -30.99999900 -31.36602600 1.00000000
v -30.99999900 -31.36602600 1.50000000
v -30.99999900 -31.36602600 1.50000000
v 31.36602600 -30.99999900 1.00000000
v 31.36602600 -30.99999900 1.00000000
v 31.36602600 -30.99999900 1.50000000
v 31.36602600 -30.99999900 1.50000000
v 1.63397500 -30.99999900 1.00000000
v 1.63397500 -30.99999900 1.00000000
v 1.63397500 -30.99999900 1.50000000
v 1.63397500 -30.99999900 1.50000000
v -1.63397500 -30.99999900 1.00000000
v -1.63397500 -30.99999900 1.00000000
v -1.63397500 -30.99999900 1.50000000
v -1.63397500 -30.99999900 1.50000000
v -31.36602600 -30.99999900 1.00000000
v -31.36602600 -30.99999900 1.00000000
v -31.36602600 -30.99999900 1.50000000
v -31.36602600 -30.99999900 1.50000000
v 31.50000100 -30.50000000 1.00000000
v 31.50000100 -30.50000000 1.00000000
v 31.50000100 -30.50000000 1.00000000
v 31.50000100 -30.50000000 1.50000000
v 31.50000100 -30.50000000 1.50000000
v 31.50000100 -30.50000000 1.50000000
v 1.50000000 -30.50000000 1.00000000
v 1.50000000 -30.50000000 1.00000000
v 1.50000000 -30.50000000 1.00000000
v 1.50000000 -30.50000000 1.50000000
v 1.50000000 -30.50000000 1.50000000
v 1.50000000 -30.50000000 1.50000000
v -1.50000000 -30.50000000 1.00000000
v -1.50000000 -30.50000000 1.00000000
v -1.50000000 -30.50000000 1.00000000
v -1.50000000 -30.50000000 1.50000000
v -1.50000000 -30.50000000 1.50000000
v -1.50000000 -30.50000000 1.50000000
v -31.50000100 -30.50000000 1.00000000
v -31.50000100 -30.50000000 1.00000000
v -31.50000100 -30.50000000 1.00000000
v -31.50000100 -30.50000000 1.50000000
v -31.50000100 -30.50000000 1.50000000
v -31.50000100 -30.50000000 1.50000000
v 31.50000100 -2.50000000 1.00000000
v 31.50000100 -2.50000000 1.00000000
v 31.50000100 -2.50000000 1.00000000
v 31.50000100 -2.50000000 1.50000000
v 31.50000100 -2.50000000 1.50000000
v 31.50000100 -2.50000000 1.50000000
v 1.50000000 -2.50000000 1.00000000
v 1.50000000 -2.50000000 1.00000000
v 1.50000000 -2.50000000 1.00000000
v 1.50000000 -2.50000000 1.50000000
v 1.50000000 -2.50000000 1.50000000
v 1.50000000 -2.50000000 1.50000000
v -1.50000000 -2.50000000 1.00000000
v -1.50000000 -2.50000000 1.00000000
v -1.50000000 -2.50000000 1.00000000
v -1.50000000 -2.50000000 1.50000000
v -1.50000000 -2.50000000 1.50000000
v -1.50000000 -2.50000000 1.50000000
v -31.50000100 -2.50000000 1.00000000
v -31.50000100 -2.50000000 1.00000000
v -31.50000100 -2.50000000 1.00000000
v -31.50000100 -2.50000000 1.50000000
v -31.50000100 -2.50000000 1.50000000
v -31.50000100 -2.50000000 1.50000000
v 31.36602600 -2.00000000 1.00000000
v 31.36602600 -2.00000000 1.00000000
v 31.36602600 -2.00000000 1.50000000
v 31.36602600 -2.00000000 1.50000000
v 1.63397500 -2.00000000 1.00000000
v 1.63397500 -2.00000000 1.00000000
v 1.63397500 -2.00000000 1.50000000
v 1.63397500 -2.00000000 1.50000000
v -1.63397500 -2.00000000 1.00000000
v -1.63397500 -2.00000000 1.00000000
v -1.63397500 -2.00000000 1.50000000
v -1.63397500 -2.00000000 1.50000000
v -31.36602600 -2.00000000 1.00000000
v -31.36602600 -2.00000000 1.00000000
v -31.36602600 -2.00000000 1.50000000
v -31.36602600 -2.00000000 1.50000000
v 30.99999900 -1.63397500 1.00000000
v 30.99999900 -1.63397500 1.00000000
v 30.99999900 -1.63397500 1.50000000
v 30.99999900 -1.63397500 1.50000000
v 2.00000000 -1.63397500 1.00000000
v 2.00000000 -1.63397500 1.00000000
v 2.00000000 -1.63397500 1.50000000
v 2.00000000 -1.63397500 1.50000000
v -2.00000000 -1.63397500 1.00000000
v -2.00000000 -1.63397500 1.00000000
v -2.00000000 -1.63397500 1.50000000
v -2.00000000 -1.63397500 1.50000000
v -30.99999900 -1.63397500 1.00000000
v -30.99999900 -1.63397500 1.00000000
v -30.99999900 -1.63397500 1.50000000
v -30.99999900 -1.63397500 1.50000000
v 30.50000000 -1.50000000 1.00000000
v 30.50000000 -1.50000000 1.00000000
v 30.50000000 -1.50000000 1.00000000
v 30.50000000 -1.50000000 1.50000000
v 30.50000000 -1.50000000 1.50000000
v 30.50000000 -1.50000000 1.50000000
v 2.50000000 -1.50000000 1.00000000
v 2.50000000 -1.50000000 1.00000000
v 2.50000000 -1.50000000 1.00000000
v 2.50000000 -1.50000000 1.50000000
v 2.50000000 -1.50000000 1.50000000
v 2.50000000 -1.50000000 1.50000000
v -2.50000000 -1.50000000 1.00000000
v -2.50000000 -1.50000000 1.00000000
v -2.50000000 -1.50000000 1.00000000
v -2.50000000 -1.50000000 1.50000000
v -2.50000000 -1.50000000 1.50000000
v -2.50000000 -1.50000000 1.50000000
v -30.50000000 -1.50000000 1.00000000
v -30.50000000 -1.50000000 1.00000000
v -30.50000000 -1.50000000 1.00000000
v -30.50000000 -1.50000000 1.50000000
v -30.50000000 -1.50000000 1.50000000
v -30.50000000 -1.50000000 1.50000000
v 30.50000000 1.50000000 1.00000000
v 30.50000000 1.50000000 1.00000000
v 30.50000000 1.50000000 1.00000000
v 30.50000000 1.50000000 1.50000000
v 30.50000000 1.50000000 1.50000000
v 30.50000000 1.50000000 1.50000000
v 2.50000000 1.50000000 1.00000000
v 2.50000000 1.50000000 1.00000000
v 2.50000000 1.50000000 1.00000000
v 2.50000000 1.50000000 1.50000000
v 2.50000000 1.50000000 1.50000000
v 2.50000000 1.50000000 1.50000000
v -2.50000000 1.50000000 1.00000000
v -2.50000000 1.50000000 1.00000000
v -2.50000000 1.50000000 1.00000000
v -2.50000000 1.50000000 1.50000000
v -2.50000000 1.50000000 1.50000000
v -2.50000000 1.50000000 1.50000000
v -30.50000000 1.50000000 1.00000000
v -30.50000000 1.50000000 1.00000000
v -30.50000000 1.50000000 1.00000000
v -30.50000000 1.50000000 1.50000000
v -30.50000000 1.50000000 1.50000000
v -30.50000000 1.50000000 1.50000000
v 30.99999900 1.63397500 1.00000000
v 30.99999900 1.63397500 1.00000000
v 30.99999900 1.63397500 1.50000000
v 30.99999900 1.63397500 1.50000000
v 2.00000000 1.63397500 1.00000000
v 2.00000000 1.63397500 1.00000000
v 2.00000000 1.63397500 1.50000000
v 2.00000000 1.63397500 1.50000000
v -2.00000000 1.63397500 1.00000000
v -2.00000000 1.63397500 1.00000000
v -2.00000000 1.63397500 1.50000000
v -2.00000000 1.63397500 1.50000000
v -30.99999900 1.63397500 1.00000000
v -30.99999900 1.63397500 1.00000000
v -30.99999900 1.63397500 1.50000000
v -30.99999900 1.63397500 1.50000000
v 31.36602600 2.00000000 1.00000000
v 31.36602600 2.00000000 1.00000000
v 31.36602600 2.00000000 1.50000000
v 31.36602600 2.00000000 1.50000000
v 1.63397500 2.00000000 1.00000000
v 1.63397500 2.00000000 1.00000000
v 1.63397500 2.00000000 1.50000000
v 1.63397500 2.00000000 1.50000000
v -1.63397500 2.00000000 1.00000000
v -1.63397500 2.00000000 1.00000000
v -1.63397500 2.00000000 1.50000000
v -1.63397500 2.00000000 1.50000000
v -31.36602600 2.00000000 1.00000000
v -31.36602600 2.00000000 1.00000000
v -31.36602600 2.00000000 1.50000000
v -31.36602600 2.00000000 1.50000000
v 31.50000100 2.50000000 1.00000000
v 31.50000100 2.50000000 1.00000000
v 31.50000100 2.50000000 1.00000000
v 31.50000100 2.50000000 1.50000000
v 31.50000100 2.50000000 1.50000000
v 31.50000100 2.50000000 1.50000000
v 1.50000000 2.50000000 1.00000000
v 1.50000000 2.50000000 1.00000000
v 1.50000000 2.50000000 1.00000000
v 1.50000000 2.50000000 1.50000000
v 1.50000000 2.50000000 1.50000000
v 1.50000000 2.50000000 1.50000000
v -1.50000000 2.50000000 1.00000000
v -1.50000000 2.50000000 1.00000000
v -1.50000000 2.50000000 1.00000000
v -1.50000000 2.50000000 1.50000000
v -1.50000000 2.50000000 1.50000000
v -1.50000000 2.50000000 1.50000000
v -31.50000100 2.50000000 1.00000000
v -31.50000100 2.50000000 1.00000000
v -31.50000100 2.50000000 1.00000000
v -31.50000100 2.50000000 1.50000000
v -31.50000100 2.50000000 1.50000000
v -31.50000100 2.50000000 1.50000000
v 31.50000100 30.50000000 1.00000000
v 31.50000100 30.50000000 1.00000000
v 31.50000100 30.50000000 1.00000000
v 31.50000100 30.50000000 1.50000000
v 31.50000100 30.50000000 1.50000000
v 31.50000100 30.50000000 1.50000000
v 1.50000000 30.50000000 1.00000000
v 1.50000000 30.50000000 1.00000000
v 1.50000000 30.50000000 1.00000000
v 1.50000000 30.50000000 1.50000000
v 1.50000000 30.50000000 1.50000000
v 1.50000000 30.50000000 1.50000000
v -1.50000000 30.50000000 1.00000000
v -1.50000000 30.50000000 1.00000000
v -1.50000000 30.50000000 1.00000000
v -1.50000000 30.50000000 1.50000000
v -1.50000000 30.50000000 1.50000000
v -1.50000000 30.50000000 1.50000000
v -31.50000100 30.50000000 1.00000000
v -31.50000100 30.50000000 1.00000000
v -31.50000100 30.50000000 1.00000000
v -31.50000100 30.50000000 1.50000000
v -31.50000100 30.50000000 1.50000000
v -31.50000100 30.50000000 1.50000000
v 31.36602600 30.99999900 1.00000000
v 31.36602600 30.99999900 1.00000000
v 31.36602600 30.99999900 1.50000000
v 31.36602600 30.99999900 1.50000000
v 1.63397500 30.99999900 1.00000000
v 1.63397500 30.99999900 1.00000000
v 1.63397500 30.99999900 1.50000000
v 1.63397500 30.99999900 1.50000000
v -1.63397500 30.99999900 1.00000000
v -1.63397500 30.99999900 1.00000000
v -1.63397500 30.99999900 1.50000000
v -1.63397500 30.99999900 1.50000000
v -31.36602600 30.99999900 1.00000000
v -31.36602600 30.99999900 1.00000000
v -31.36602600 30.99999900 1.50000000
v -31.36602600 30.99999900 1.50000000
v 30.99999900 31.36602600 1.00000000
v 30.99999900 31.36602600 1.00000000
v 30.99999900 31.36602600 1.50000000
v 30.99999900 31.36602600 1.50000000
v 2.00000000 31.36602600 1.00000000
v 2.00000000 31.36602600 1.00000000
v 2.00000000 31.36602600 1.50000000
v 2.00000000 31.36602600 1.50000000
v -2.00000000 31.36602600 1.00000000
v -2.00000000 31.36602600 1.00000000
v -2.00000000 31.36602600 1.50000000
v -2.00000000 31.36602600 1.50000000
v -30.99999900 31.36602600 1.00000000
v -30.99999900 31.36602600 1.00000000
v -30.99999900 31.36602600 1.50000000
v -30.99999900 31.36602600 1.50000000
v 34.50000000 31.50000100 0.00000000
v 34.50000000 31.50000100 0.00000000
v 34.50000000 31.50000100 0.00000000
v 34.50000000 31.50000100 1.00000000
v 34.50000000 31.50000100 1.00000000
v 34.50000000 31.50000100 1.00000000
v 30.50000000 31.50000100 1.00000000
v 30.50000000 31.50000100 1.00000000
v 30.50000000 31.50000100 1.00000000
v 30.50000000 31.50000100 1.50000000
v 30.50000000 31.50000100 1.50000000
v 30.50000000 31.50000100 1.50000000
v 2.50000000 31.50000100 1.00000000
v 2.50000000 31.50000100 1.00000000
v 2.50000000 31.50000100 1.00000000
v 2.50000000 31.50000100 1.50000000
v 2.50000000 31.50000100 1.50000000
v 2.50000000 31.50000100 1.50000000
v -2.50000000 31.50000100 1.00000000
v -2.50000000 31.50000100 1.00000000
v -2.50000000 31.50000100 1.00000000
v -2.50000000 31.50000100 1.50000000
v -2.50000000 31.50000100 1.50000000
v -2.50000000 31.50000100 1.50000000
v -30.50000000 31.50000100 1.00000000
v -30.50000000 31.50000100 1.00000000
v -30.50000000 31.50000100 1.00000000
v -30.50000000 31.50000100 1.50000000
v -30.50000000 31.50000100 1.50000000
v -30.50000000 31.50000100 1.50000000
v -34.50000000 31.50000100 -0.00000000
v -34.50000000 31.50000100 -0.00000000
v -34.50000000 31.50000100 -0.00000000
v -34.50000000 31.50000100 1.00000000
v -34.50000000 31.50000100 1.00000000
v -34.50000000 31.50000100 1.00000000
v 31.50000100 34.50000000 0.00000000
v 31.50000100 34.50000000 0.00000000
v 31.50000100 34.50000000 0.00000000
v 31.50000100 34.50000000 1.00000000
v 31.50000100 34.50000000 1.00000000
v 31.50000100 34.50000000 1.00000000
v -31.50000100 34.50000000 -0.00000000
v -31.50000100 34.50000000 -0.00000000
v -31.50000100 34.50000000 -0.00000000
v -31.50000100 34.50000000 1.00000000
v -31.50000100 34.50000000 1.00000000
v -31.50000100 34.50000000 1.00000000
vn -0.07071100 0.00000000 -0.07071100
vn -0.10000000 0.00000000 0.00000000
vn -0.05773500 -0.05773500 -0.05773500
vn -0.07071100 -0.07071100 -0.00000000
vn -0.07071100 -0.07071100 -0.00000000
vn 0.00000000 -0.00000000 0.10000000
vn -0.10000000 0.00000000 0.00000000
vn 0.00000000 -0.00000000 0.10000000
vn -0.10000000 0.00000000 0.00000000
vn -0.10000000 0.00000000 0.00000000
vn 0.00000000 -0.00000000 0.10000000
vn -0.10000000 0.00000000 0.00000000
vn -0.05773500 0.05773500 -0.05773500
vn -0.07071100 0.00000000 -0.07071100
vn -0.10000000 0.00000000 0.00000000
vn -0.07071100 0.07071100 0.00000000
vn -0.07071100 0.07071100 0.00000000
vn -0.10000000 0.00000000 0.00000000
vn 0.00000000 -0.00000000 0.10000000
vn -0.05773500 -0.05773500 -0.05773500
vn 0.00000000 -0.07071100 -0.07071100
vn -0.07071100 -0.07071100 -0.00000000
vn 0.00000000 -0.10000000 -0.00000000
vn 0.00000000 -0.10000000 -0.00000000
vn -0.07071100 -0.07071100 -0.00000000
vn 0.00000000 -0.00000000 0.10000000
vn 0.00000000 -0.07071100 -0.07071100
vn 0.00000000 0.00000000 -0.10000000
vn -0.07071100 0.00000000 -0.07071100
vn -0.05773500 -0.05773500 -0.05773500
vn 0.00000000 0.00000000 -0.10000000
vn 0.00000000 0.07071100 -0.07071100
vn -0.07071100 0.00000000 -0.07071100
vn -0.05773500 0.05773500 -0.05773500
vn -0.05773500 0.05773500 -0.05773500
vn 0.00000000 0.10000000 0.00000000
vn 0.00000000 0.07071100 -0.07071100
vn -0.07071100 0.07071100 0.00000000
vn -0.07071100 0.07071100 0.00000000
vn 0.00000000 -0.00000000 0.10000000
vn 0.00000000 0.10000000 0.00000000
vn 0.00000000 -0.00000000 0.10000000
vn 0.00000000 -0.10000000 -0.00000000
vn 0.00000000 -0.00000000 0.10000000
vn 0.00000000 -0.00000000 0.10000000
vn 0.00000000 0.10000000 0.00000000
vn 0.00000000 -0.00000000 0.10000000
vn 0.00000000 -0.10000000 -0.00000000
vn 0.00000000 0.10000000 0.00000000
vn 0.00000000 -0.10000000 -0.00000000
vn 0.00000000 -0.00000000 0.10000000
vn 0.00000000 -0.00000000 0.10000000
vn 0.00000000 -0.00000000 0.10000000
vn 0.00000000 -0.00000000 0.10000000
vn 0.00000000 0.10000000 0.00000000
vn 0.00000000 -0.07071100 -0.07071100
vn 0.07071100 -0.07071100 -0.00000000
vn 0.00000000 -0.10000000 -0.00000000
vn 0.05773500 -0.05773500 -0.05773500
vn 0.00000000 -0.10000000 -0.00000000
vn 0.00000000 -0.00000000 0.10000000
vn 0.07071100 -0.07071100 -0.00000000
vn 0.00000000 -0.07071100 -0.07071100
vn 0.07071100 0.00000000 -0.07071100
vn 0.05773500 -0.05773500 -0.05773500
vn 0.00000000 0.00000000 -0.10000000
vn 0.00000000 0.00000000 -0.10000000
vn 0.07071100 0.00000000 -0.07071100
vn 0.05773500 0.05773500 -0.05773500
vn 0.00000000 0.07071100 -0.07071100
vn 0.07071100 0.07071100 0.00000000
vn 0.00000000 0.07071100 -0.07071100
vn 0.00000000 0.10000000 0.00000000
vn 0.05773500 0.05773500 -0.05773500
vn 0.07071100 0.07071100 0.00000000
vn 0.00000000 -0.00000000 0.10000000
vn 0.00000000 0.10000000 0.00000000
vn 0.07071100 -0.07071100 -0.00000000
vn 0.10000000 0.00000000 0.00000000
vn 0.05773500 -0.05773500 -0.05773500
vn 0.07071100 0.00000000 -0.07071100
vn 0.10000000 0.00000000 0.00000000
vn 0.00000000 -0.00000000 0.10000000
vn 0.07071100 -0.07071100 -0.00000000
vn 0.10000000 0.00000000 0.00000000
vn 0.00000000 -0.00000000 0.10000000
vn 0.10000000 0.00000000 0.00000000
vn 0.10000000 0.00000000 0.00000000
vn 0.00000000 -0.00000000 0.10000000
vn 0.07071100 0.07071100 0.00000000
vn 0.05773500 0.05773500 -0.05773500
vn 0.07071100 0.00000000 -0.07071100
vn 0.10000000 0.00000000 0.00000000
vn 0.10000000 0.00000000 0.00000000
vn 0.07071100 0.07071100 0.00000000
vn 0.00000000 -0.00000000 0.10000000
vn -0.00000000 -0.07071100 0.07071100
vn -0.07071100 -0.07071100 -0.00000000
vn 0.00000000 -0.10000000 0.00000000
vn -0.05773500 -0.05773500 0.05773500
vn -0.07071100 -0.07071100 -0.00000000
vn 0.00000000 -0.10000000 0.00000000
vn 0.00000000 -0.00000000 -0.10000000
vn -0.00000000 -0.07071100 0.07071100
vn 0.00000000 -0.10000000 0.00000000
vn 0.05773500 -0.05773500 0.05773500
vn 0.07071100 -0.07071100 0.00000000
vn 0.00000000 -0.10000000 0.00000000
vn 0.00000000 -0.00000000 -0.10000000
vn 0.07071100 -0.07071100 0.00000000
vn -0.00000000 -0.07071100 0.07071100
vn -0.07071100 -0.07071100 -0.00000000
vn -0.10000000 -0.00000000 -0.00000000
vn -0.07071100 -0.00000000 0.07071100
vn -0.05773500 -0.05773500 0.05773500
vn -0.10000000 -0.00000000 -0.00000000
vn 0.00000000 -0.00000000 -0.10000000
vn -0.07071100 -0.07071100 -0.00000000
vn -0.00000000 -0.07071100 0.07071100
vn -0.00000000 0.00000000 0.10000000
vn -0.07071100 -0.00000000 0.07071100
vn -0.05773500 -0.05773500 0.05773500
vn 0.10000000 0.00000000 0.00000000
vn -0.00000000 0.10000000 -0.00000000
vn 0.00000000 -0.00000000 -0.10000000
vn -0.00000000 0.10000000 -0.00000000
vn 0.10000000 0.00000000 0.00000000
vn -0.10000000 -0.00000000 -0.00000000
vn -0.00000000 0.10000000 -0.00000000
vn 0.00000000 -0.00000000 -0.10000000
vn -0.10000000 -0.00000000 -0.00000000
vn -0.00000000 0.10000000 -0.00000000
vn -0.00000000 0.00000000 0.10000000
vn -0.00000000 -0.07071100 0.07071100
vn -0.00000000 -0.07071100 0.07071100
vn -0.00000000 0.00000000 0.10000000
vn 0.10000000 0.00000000 0.00000000
vn -0.00000000 0.10000000 -0.00000000
vn 0.10000000 0.00000000 0.00000000
vn -0.00000000 0.10000000 -0.00000000
vn 0.00000000 -0.00000000 -0.10000000
vn -0.00000000 -0.07071100 0.07071100
vn 0.07071100 0.00000000 0.07071100
vn -0.00000000 0.00000000 0.10000000
vn 0.05773500 -0.05773500 0.05773500
vn -0.10000000 -0.00000000 -0.00000000
vn -0.00000000 0.10000000 -0.00000000
vn 0.00000000 -0.00000000 -0.10000000
vn -0.00000000 0.10000000 -0.00000000
vn -0.10000000 -0.00000000 -0.00000000
vn 0.07071100 0.00000000 0.07071100
vn 0.10000000 0.00000000 0.00000000
vn 0.07071100 -0.07071100 0.00000000
vn 0.05773500 -0.05773500 0.05773500
vn 0.10000000 0.00000000 0.00000000
vn 0.00000000 -0.00000000 -0.10000000
vn 0.07071100 -0.07071100 0.00000000
vn 0.00000000 -0.10000000 0.00000000
vn 0.10000000 0.00000000 0.00000000
vn 0.00000000 -0.10000000 0.00000000
vn 0.00000000 -0.00000000 -0.10000000
vn 0.10000000 0.00000000 0.00000000
vn 0.00000000 -0.10000000 0.00000000
vn -0.10000000 -0.00000000 -0.00000000
vn -0.10000000 -0.00000000 -0.00000000
vn 0.00000000 -0.10000000 0.00000000
vn 0.00000000 -0.00000000 -0.10000000
vn 0.00000000 -0.10000000 0.00000000
vn 0.10000000 0.00000000 0.00000000
vn 0.10000000 0.00000000 0.00000000
vn 0.00000000 -0.10000000 0.00000000
vn 0.00000000 -0.00000000 -0.10000000
vn 0.00000000 -0.10000000 0.00000000
vn -0.10000000 -0.00000000 -0.00000000
vn 0.00000000 -0.10000000 0.00000000
vn 0.00000000 -0.00000000 -0.10000000
vn -0.10000000 -0.00000000 -0.00000000
vn -0.07071100 -0.00000000 0.07071100
vn -0.00000000 0.00000000 0.10000000
vn -0.00000000 0.00000000 0.10000000
vn -0.00000000 0.00000000 0.10000000
vn -0.00000000 0.00000000 0.10000000
vn 0.07071100 0.00000000 0.07071100
vn -0.07071100 -0.00000000 0.07071100
vn 0.07071100 0.00000000 0.07071100
vn -0.07071100 -0.00000000 0.07071100
vn -0.00000000 0.00000000 0.10000000
vn -0.00000000 0.00000000 0.10000000
vn -0.00000000 0.00000000 0.10000000
vn -0.00000000 0.00000000 0.10000000
vn 0.07071100 0.00000000 0.07071100
vn 0.10000000 0.00000000 0.00000000
vn -0.00000000 0.10000000 -0.00000000
vn 0.10000000 0.00000000 0.00000000
vn 0.00000000 -0.00000000 -0.10000000
vn -0.00000000 0.10000000 -0.00000000
vn -0.00000000 0.10000000 -0.00000000
vn -0.10000000 -0.00000000 -0.00000000
vn -0.10000000 -0.00000000 -0.00000000
vn -0.00000000 0.10000000 -0.00000000
vn 0.00000000 -0.00000000 -0.10000000
vn 0.10000000 0.00000000 0.00000000
vn -0.00000000 0.10000000 -0.00000000
vn 0.00000000 -0.00000000 -0.10000000
vn -0.00000000 0.10000000 -0.00000000
vn 0.00000000 -0.00000000 -0.10000000
vn 0.10000000 0.00000000 0.00000000
vn 0.00000000 -0.00000000 -0.10000000
vn -0.00000000 0.10000000 -0.00000000
vn -0.10000000 -0.00000000 -0.00000000
vn -0.10000000 -0.00000000 -0.00000000
vn 0.00000000 -0.00000000 -0.10000000
vn -0.00000000 0.10000000 -0.00000000
vn -0.07071100 0.07071100 -0.00000000
vn -0.05773500 0.05773500 0.05773500
vn -0.10000000 -0.00000000 -0.00000000
vn -0.07071100 -0.00000000 0.07071100
vn -0.10000000 -0.00000000 -0.00000000
vn 0.00000000 -0.00000000 -0.10000000
vn -0.07071100 0.07071100 -0.00000000
vn -0.05773500 0.05773500 0.05773500
vn -0.07071100 -0.00000000 0.07071100
vn -0.00000000 0.07071100 0.07071100
vn -0.00000000 0.00000000 0.10000000
vn 0.00000000 -0.10000000 0.00000000
vn 0.10000000 0.00000000 0.00000000
vn 0.00000000 -0.00000000 -0.10000000
vn 0.00000000 -0.10000000 0.00000000
vn 0.10000000 0.00000000 0.00000000
vn 0.00000000 -0.10000000 0.00000000
vn -0.10000000 -0.00000000 -0.00000000
vn 0.00000000 -0.00000000 -0.10000000
vn 0.00000000 -0.10000000 0.00000000
vn -0.10000000 -0.00000000 -0.00000000
vn -0.00000000 0.00000000 0.10000000
vn -0.00000000 0.07071100 0.07071100
vn -0.00000000 0.00000000 0.10000000
vn -0.00000000 0.07071100 0.07071100
vn 0.00000000 -0.00000000 -0.10000000
vn 0.00000000 -0.10000000 0.00000000
vn 0.10000000 0.00000000 0.00000000
vn 0.00000000 -0.10000000 0.00000000
vn 0.00000000 -0.00000000 -0.10000000
vn 0.10000000 0.00000000 0.00000000
vn 0.07071100 0.00000000 0.07071100
vn 0.05773500 0.05773500 0.05773500
vn -0.00000000 0.07071100 0.07071100
vn -0.00000000 0.00000000 0.10000000
vn -0.10000000 -0.00000000 -0.00000000
vn 0.00000000 -0.00000000 -0.10000000
vn 0.00000000 -0.10000000 0.00000000
vn 0.00000000 -0.10000000 0.00000000
vn -0.10000000 -0.00000000 -0.00000000
vn 0.00000000 -0.00000000 -0.10000000
vn 0.07071100 0.07071100 0.00000000
vn 0.07071100 0.00000000 0.07071100
vn 0.05773500 0.05773500 0.05773500
vn 0.10000000 0.00000000 0.00000000
vn 0.10000000 0.00000000 0.00000000
vn 0.00000000 -0.00000000 -0.10000000
vn 0.07071100 0.07071100 0.00000000
vn -0.00000000 0.07071100 0.07071100
vn -0.00000000 0.10000000 -0.00000000
vn -0.00000000 0.07071100 0.07071100
vn -0.07071100 0.07071100 -0.00000000
vn -0.05773500 0.05773500 0.05773500
vn -0.00000000 0.10000000 -0.00000000
vn -0.07071100 0.07071100 -0.00000000
vn 0.00000000 -0.00000000 -0.10000000
vn -0.00000000 0.07071100 0.07071100
vn 0.05773500 0.05773500 0.05773500
vn -0.00000000 0.10000000 -0.00000000
vn 0.07071100 0.07071100 0.00000000
vn 0.07071100 0.07071100 0.00000000
vn 0.00000000 -0.00000000 -0.10000000
vn -0.00000000 0.10000000 -0.00000000
vn 0.07071100 -0.07071100 0.00000000
vn -0.00000000 -0.10000000 0.00000000
vn 0.00000000 -0.00000000 -0.10000000
vn -0.00000000 -0.10000000 0.00000000
vn -0.00000000 0.00000000 0.10000000
vn 0.07071100 -0.07071100 0.00000000
vn -0.07071100 -0.07071100 -0.00000000
vn -0.00000000 -0.10000000 0.00000000
vn 0.00000000 -0.00000000 -0.10000000
vn -0.00000000 0.00000000 0.10000000
vn -0.07071100 -0.07071100 -0.00000000
vn -0.00000000 -0.10000000 0.00000000
vn 0.07071100 -0.07071100 0.00000000
vn 0.10000000 -0.00000000 0.00000000
vn 0.00000000 -0.00000000 -0.10000000
vn 0.07071100 -0.07071100 0.00000000
vn -0.00000000 0.00000000 0.10000000
vn 0.10000000 -0.00000000 0.00000000
vn -0.00000000 -0.10000000 0.00000000
vn -0.00000000 -0.10000000 0.00000000
vn -0.00000000 0.00000000 0.10000000
vn -0.00000000 0.00000000 0.10000000
vn -0.00000000 -0.10000000 0.00000000
vn -0.00000000 -0.10000000 0.00000000
vn -0.00000000 -0.10000000 0.00000000
vn -0.00000000 -0.10000000 0.00000000
vn -0.00000000 0.00000000 0.10000000
vn -0.00000000 -0.10000000 0.00000000
vn -0.00000000 0.00000000 0.10000000
vn -0.00000000 -0.10000000 0.00000000
vn -0.00000000 -0.10000000 0.00000000
vn -0.00000000 0.00000000 0.10000000
vn -0.00000000 -0.10000000 0.00000000
vn -0.00000000 -0.10000000 0.00000000
vn -0.00000000 -0.10000000 0.00000000
vn -0.00000000 0.00000000 0.10000000
vn -0.00000000 -0.10000000 0.00000000
vn -0.00000000 0.00000000 0.10000000
vn -0.00000000 -0.10000000 0.00000000
vn -0.00000000 -0.10000000 0.00000000
vn -0.00000000 -0.10000000 0.00000000
vn -0.00000000 0.00000000 0.10000000
vn -0.10000000 0.00000000 -0.00000000
vn -0.07071100 -0.07071100 -0.00000000
vn 0.00000000 -0.00000000 -0.10000000
vn -0.07071100 -0.07071100 -0.00000000
vn -0.10000000 0.00000000 -0.00000000
vn -0.00000000 0.00000000 0.10000000
vn -0.00000000 0.00000000 0.10000000
vn 0.05000000 -0.08660300 0.00000000
vn 0.05000000 -0.08660300 0.00000000
vn -0.00000000 0.00000000 0.10000000
vn -0.05000000 -0.08660300 -0.00000000
vn -0.00000000 0.00000000 0.10000000
vn -0.00000000 0.00000000 0.10000000
vn -0.05000000 -0.08660300 -0.00000000
vn -0.00000000 0.00000000 0.10000000
vn 0.05000000 -0.08660300 0.00000000
vn 0.05000000 -0.08660300 0.00000000
vn -0.00000000 0.00000000 0.10000000
vn -0.00000000 0.00000000 0.10000000
vn -0.05000000 -0.08660300 -0.00000000
vn -0.00000000 0.00000000 0.10000000
vn -0.05000000 -0.08660300 -0.00000000
vn -0.00000000 0.00000000 0.10000000
vn 0.08660300 -0.05000000 0.00000000
vn -0.00000000 0.00000000 0.10000000
vn 0.08660300 -0.05000000 0.00000000
vn -0.08660300 -0.05000000 -0.00000000
vn -0.00000000 0.00000000 0.10000000
vn -0.00000000 0.00000000 0.10000000
vn -0.08660300 -0.05000000 -0.00000000
vn 0.08660300 -0.05000000 0.00000000
vn -0.00000000 0.00000000 0.10000000
vn -0.00000000 0.00000000 0.10000000
vn 0.08660300 -0.05000000 0.00000000
vn -0.00000000 0.00000000 0.10000000
vn -0.08660300 -0.05000000 -0.00000000
vn -0.08660300 -0.05000000 -0.00000000
vn -0.00000000 0.00000000 0.10000000
vn 0.10000000 -0.00000000 0.00000000
vn -0.00000000 0.00000000 0.10000000
vn 0.10000000 -0.00000000 0.00000000
vn 0.10000000 -0.00000000 0.00000000
vn 0.10000000 -0.00000000 0.00000000
vn -0.00000000 0.00000000 0.10000000
vn -0.00000000 0.00000000 0.10000000
vn -0.10000000 0.00000000 -0.00000000
vn -0.10000000 0.00000000 -0.00000000
vn -0.10000000 0.00000000 -0.00000000
vn -0.10000000 0.00000000 -0.00000000
vn -0.00000000 0.00000000 0.10000000
vn 0.10000000 -0.00000000 0.00000000
vn 0.10000000 -0.00000000 0.00000000
vn -0.00000000 0.00000000 0.10000000
vn 0.10000000 -0.00000000 0.00000000
vn 0.10000000 -0.00000000 0.00000000
vn -0.00000000 0.00000000 0.10000000
vn -0.10000000 0.00000000 -0.00000000
vn -0.10000000 0.00000000 -0.00000000
vn -0.00000000 0.00000000 0.10000000
vn -0.10000000 0.00000000 -0.00000000
vn -0.00000000 0.00000000 0.10000000
vn -0.10000000 0.00000000 -0.00000000
vn -0.00000000 0.00000000 0.10000000
vn 0.10000000 -0.00000000 0.00000000
vn 0.10000000 -0.00000000 0.00000000
vn 0.10000000 -0.00000000 0.00000000
vn 0.10000000 -0.00000000 0.00000000
vn -0.00000000 0.00000000 0.10000000
vn -0.10000000 0.00000000 -0.00000000
vn -0.10000000 0.00000000 -0.00000000
vn -0.00000000 0.00000000 0.10000000
vn -0.10000000 0.00000000 -0.00000000
vn -0.10000000 0.00000000 -0.00000000
vn -0.00000000 0.00000000 0.10000000
vn -0.00000000 0.00000000 0.10000000
vn 0.10000000 -0.00000000 0.00000000
vn 0.10000000 -0.00000000 0.00000000
vn 0.10000000 -0.00000000 0.00000000
vn 0.10000000 -0.00000000 0.00000000
vn -0.00000000 0.00000000 0.10000000
vn -0.00000000 0.00000000 0.10000000
vn -0.10000000 0.00000000 -0.00000000
vn -0.10000000 0.00000000 -0.00000000
vn -0.10000000 0.00000000 -0.00000000
vn -0.00000000 0.00000000 0.10000000
vn -0.10000000 0.00000000 -0.00000000
vn -0.00000000 0.00000000 0.10000000
vn 0.08660300 0.05000000 0.00000000
vn 0.08660300 0.05000000 0.00000000
vn -0.00000000 0.00000000 0.10000000
vn -0.00000000 0.00000000 0.10000000
vn -0.08660300 0.05000000 -0.00000000
vn -0.08660300 0.05000000 -0.00000000
vn -0.00000000 0.00000000 0.10000000
vn 0.08660300 0.05000000 0.00000000
vn -0.00000000 0.00000000 0.10000000
vn -0.00000000 0.00000000 0.10000000
vn 0.08660300 0.05000000 0.00000000
vn -0.08660300 0.05000000 -0.00000000
vn -0.00000000 0.00000000 0.10000000
vn -0.00000000 0.00000000 0.10000000
vn -0.08660300 0.05000000 -0.00000000
vn 0.05000000 0.08660300 0.00000000
vn -0.00000000 0.00000000 0.10000000
vn 0.05000000 0.08660300 0.00000000
vn -0.00000000 0.00000000 0.10000000
vn -0.05000000 0.08660300 -0.00000000
vn -0.00000000 0.00000000 0.10000000
vn -0.00000000 0.00000000 0.10000000
vn -0.05000000 0.08660300 -0.00000000
vn -0.00000000 0.00000000 0.10000000
vn 0.05000000 0.08660300 0.00000000
vn 0.05000000 0.08660300 0.00000000
vn -0.00000000 0.00000000 0.10000000
vn -0.00000000 0.00000000 0.10000000
vn -0.05000000 0.08660300 -0.00000000
vn -0.05000000 0.08660300 -0.00000000
vn -0.00000000 0.00000000 0.10000000
vn -0.00000000 0.00000000 0.10000000
vn 0.00000000 0.10000000 -0.00000000
vn 0.00000000 0.10000000 -0.00000000
vn 0.00000000 0.10000000 -0.00000000
vn -0.00000000 0.00000000 0.10000000
vn 0.00000000 0.10000000 -0.00000000
vn 0.00000000 0.10000000 -0.00000000
vn 0.00000000 0.10000000 -0.00000000
vn -0.00000000 0.00000000 0.10000000
vn 0.00000000 0.10000000 -0.00000000
vn 0.00000000 0.10000000 -0.00000000
vn -0.00000000 0.00000000 0.10000000
vn 0.00000000 0.10000000 -0.00000000
vn 0.00000000 0.10000000 -0.00000000
vn -0.00000000 0.00000000 0.10000000
vn -0.00000000 0.00000000 0.10000000
vn 0.00000000 0.10000000 -0.00000000
vn 0.00000000 0.10000000 -0.00000000
vn -0.00000000 0.00000000 0.10000000
vn 0.00000000 0.10000000 -0.00000000
vn 0.00000000 0.10000000 -0.00000000
vn 0.00000000 0.10000000 -0.00000000
vn 0.00000000 0.10000000 -0.00000000
vn -0.00000000 0.00000000 0.10000000
vn -0.00000000 -0.10000000 0.00000000
vn -0.00000000 -0.10000000 0.00000000
vn -0.00000000 0.00000000 0.10000000
vn -0.00000000 -0.10000000 0.00000000
vn -0.00000000 0.00000000 0.10000000
vn -0.00000000 -0.10000000 0.00000000
vn -0.00000000 -0.10000000 0.00000000
vn -0.00000000 -0.10000000 0.00000000
vn -0.00000000 0.00000000 0.10000000
vn -0.00000000 0.00000000 0.10000000
vn -0.00000000 -0.10000000 0.00000000
vn -0.00000000 -0.10000000 0.00000000
vn -0.00000000 -0.10000000 0.00000000
vn -0.00000000 0.00000000 0.10000000
vn -0.00000000 -0.10000000 0.00000000
vn -0.00000000 -0.10000000 0.00000000
vn -0.00000000 -0.10000000 0.00000000
vn -0.00000000 0.00000000 0.10000000
vn -0.00000000 -0.10000000 0.00000000
vn -0.00000000 0.00000000 0.10000000
vn -0.00000000 -0.10000000 0.00000000
vn -0.00000000 -0.10000000 0.00000000
vn -0.00000000 -0.10000000 0.00000000
vn -0.00000000 0.00000000 0.10000000
vn 0.05000000 -0.08660300 0.00000000
vn -0.00000000 0.00000000 0.10000000
vn -0.00000000 0.00000000 0.10000000
vn 0.05000000 -0.08660300 0.00000000
vn -0.05000000 -0.08660300 -0.00000000
vn -0.00000000 0.00000000 0.10000000
vn -0.00000000 0.00000000 0.10000000
vn -0.05000000 -0.08660300 -0.00000000
vn -0.00000000 0.00000000 0.10000000
vn 0.05000000 -0.08660300 0.00000000
vn 0.05000000 -0.08660300 0.00000000
vn -0.00000000 0.00000000 0.10000000
vn -0.00000000 0.00000000 0.10000000
vn -0.05000000 -0.08660300 -0.00000000
vn -0.00000000 0.00000000 0.10000000
vn -0.05000000 -0.08660300 -0.00000000
vn 0.08660300 -0.05000000 0.00000000
vn -0.00000000 0.00000000 0.10000000
vn -0.00000000 0.00000000 0.10000000
vn 0.08660300 -0.05000000 0.00000000
vn -0.08660300 -0.05000000 -0.00000000
vn -0.00000000 0.00000000 0.10000000
vn -0.00000000 0.00000000 0.10000000
vn -0.08660300 -0.05000000 -0.00000000
vn -0.00000000 0.00000000 0.10000000
vn 0.08660300 -0.05000000 0.00000000
vn -0.00000000 0.00000000 0.10000000
vn 0.08660300 -0.05000000 0.00000000
vn -0.08660300 -0.05000000 -0.00000000
vn -0.00000000 0.00000000 0.10000000
vn -0.08660300 -0.05000000 -0.00000000
vn -0.00000000 0.00000000 0.10000000
vn 0.10000000 -0.00000000 0.00000000
vn 0.10000000 -0.00000000 0.00000000
vn -0.00000000 0.00000000 0.10000000
vn 0.10000000 -0.00000000 0.00000000
vn -0.00000000 0.00000000 0.10000000
vn 0.10000000 -0.00000000 0.00000000
vn -0.10000000 0.00000000 -0.00000000
vn -0.10000000 0.00000000 -0.00000000
vn -0.00000000 0.00000000 0.10000000
vn -0.00000000 0.00000000 0.10000000
vn -0.10000000 0.00000000 -0.00000000
vn -0.10000000 0.00000000 -0.00000000
vn -0.00000000 0.00000000 0.10000000
vn 0.10000000 -0.00000000 0.00000000
vn 0.10000000 -0.00000000 0.00000000
vn -0.00000000 0.00000000 0.10000000
vn 0.10000000 -0.00000000 0.00000000
vn 0.10000000 -0.00000000 0.00000000
vn -0.00000000 0.00000000 0.10000000
vn -0.10000000 0.00000000 -0.00000000
vn -0.10000000 0.00000000 -0.00000000
vn -0.00000000 0.00000000 0.10000000
vn -0.10000000 0.00000000 -0.00000000
vn -0.10000000 0.00000000 -0.00000000
vn 0.10000000 -0.00000000 0.00000000
vn 0.10000000 -0.00000000 0.00000000
vn -0.00000000 0.00000000 0.10000000
vn 0.10000000 -0.00000000 0.00000000
vn -0.00000000 0.00000000 0.10000000
vn 0.10000000 -0.00000000 0.00000000
vn -0.10000000 0.00000000 -0.00000000
vn -0.10000000 0.00000000 -0.00000000
vn -0.00000000 0.00000000 0.10000000
vn -0.00000000 0.00000000 0.10000000
vn -0.10000000 0.00000000 -0.00000000
vn -0.10000000 0.00000000 -0.00000000
vn 0.10000000 -0.00000000 0.00000000
vn -0.00000000 0.00000000 0.10000000
vn 0.10000000 -0.00000000 0.00000000
vn 0.10000000 -0.00000000 0.00000000
vn 0.10000000 -0.00000000 0.00000000
vn -0.00000000 0.00000000 0.10000000
vn -0.10000000 0.00000000 -0.00000000
vn -0.00000000 0.00000000 0.10000000
vn -0.10000000 0.00000000 -0.00000000
vn -0.10000000 0.00000000 -0.00000000
vn -0.10000000 0.00000000 -0.00000000
vn -0.00000000 0.00000000 0.10000000
vn 0.08660300 0.05000000 0.00000000
vn -0.00000000 0.00000000 0.10000000
vn -0.00000000 0.00000000 0.10000000
vn 0.08660300 0.05000000 0.00000000
vn -0.08660300 0.05000000 -0.00000000
vn -0.00000000 0.00000000 0.10000000
vn -0.08660300 0.05000000 -0.00000000
vn -0.00000000 0.00000000 0.10000000
vn 0.08660300 0.05000000 0.00000000
vn -0.00000000 0.00000000 0.10000000
vn -0.00000000 0.00000000 0.10000000
vn 0.08660300 0.05000000 0.00000000
vn -0.08660300 0.05000000 -0.00000000
vn -0.00000000 0.00000000 0.10000000
vn -0.00000000 0.00000000 0.10000000
vn -0.08660300 0.05000000 -0.00000000
vn 0.05000000 0.08660300 0.00000000
vn -0.00000000 0.00000000 0.10000000
vn -0.00000000 0.00000000 0.10000000
vn 0.05000000 0.08660300 0.00000000
vn -0.05000000 0.08660300 -0.00000000
vn -0.00000000 0.00000000 0.10000000
vn -0.00000000 0.00000000 0.10000000
vn -0.05000000 0.08660300 -0.00000000
vn 0.05000000 0.08660300 0.00000000
vn -0.00000000 0.00000000 0.10000000
vn 0.05000000 0.08660300 0.00000000
vn -0.00000000 0.00000000 0.10000000
vn -0.00000000 0.00000000 0.10000000
vn -0.05000000 0.08660300 -0.00000000
vn -0.05000000 0.08660300 -0.00000000
vn -0.00000000 0.00000000 0.10000000
vn 0.07071100 0.07071100 0.00000000
vn 0.00000000 -0.00000000 -0.10000000
vn 0.10000000 -0.00000000 0.00000000
vn 0.07071100 0.07071100 0.00000000
vn 0.10000000 -0.00000000 0.00000000
vn -0.00000000 0.00000000 0.10000000
vn 0.00000000 0.10000000 -0.00000000
vn 0.00000000 0.10000000 -0.00000000
vn -0.00000000 0.00000000 0.10000000
vn 0.00000000 0.10000000 -0.00000000
vn -0.00000000 0.00000000 0.10000000
vn 0.00000000 0.10000000 -0.00000000
vn 0.00000000 0.10000000 -0.00000000
vn -0.00000000 0.00000000 0.10000000
vn 0.00000000 0.10000000 -0.00000000
vn -0.00000000 0.00000000 0.10000000
vn 0.00000000 0.10000000 -0.00000000
vn 0.00000000 0.10000000 -0.00000000
vn 0.00000000 0.10000000 -0.00000000
vn -0.00000000 0.00000000 0.10000000
vn 0.00000000 0.10000000 -0.00000000
vn 0.00000000 0.10000000 -0.00000000
vn 0.00000000 0.10000000 -0.00000000
vn -0.00000000 0.00000000 0.10000000
vn -0.00000000 0.00000000 0.10000000
vn 0.00000000 0.10000000 -0.00000000
vn 0.00000000 0.10000000 -0.00000000
vn 0.00000000 0.10000000 -0.00000000
vn 0.00000000 0.10000000 -0.00000000
vn -0.00000000 0.00000000 0.10000000
vn -0.07071100 0.07071100 -0.00000000
vn 0.00000000 -0.00000000 -0.10000000
vn -0.10000000 0.00000000 -0.00000000
vn -0.07071100 0.07071100 -0.00000000
vn -0.10000000 0.00000000 -0.00000000
vn -0.00000000 0.00000000 0.10000000
vn 0.07071100 0.07071100 0.00000000
vn 0.00000000 -0.00000000 -0.10000000
vn 0.00000000 0.10000000 -0.00000000
vn -0.00000000 0.00000000 0.10000000
vn 0.00000000 0.10000000 -0.00000000
vn 0.07071100 0.07071100 0.00000000
vn -0.07071100 0.07071100 -0.00000000
vn 0.00000000 -0.00000000 -0.10000000
vn 0.00000000 0.10000000 -0.00000000
vn -0.07071100 0.07071100 -0.00000000
vn 0.00000000 0.10000000 -0.00000000
vn -0.00000000 0.00000000 0.10000000
vt 0.21213200 -1.42500000
vt 0.30000000 3.15000000
vt 0.00000000 0.00000000
vt -3.15000000 0.21213200
vt 0.00000000 0.21213200
vt -3.45000000 -3.15000000
vt 0.30000000 0.00000000
vt -3.45000000 -0.05000000
vt 3.40000000 0.00000000
vt 3.45000000 0.08660300
vt -3.45000000 0.05000000
vt 3.50000000 0.00000000
vt 0.21213200 -0.36742300
vt 0.21213200 4.87500000
vt 6.60000000 3.15000000
vt -3.15000000 -0.21213200
vt 0.00000000 -0.21213200
vt 6.60000000 0.00000000
vt -3.45000000 3.15000000
vt -0.21213200 -0.36742300
vt 4.87500000 -0.21213200
vt -3.15000000 -0.21213200
vt 6.60000000 3.15000000
vt 6.60000000 0.00000000
vt 0.00000000 -0.21213200
vt -3.15000000 -3.45000000
vt 4.87500000 0.21213200
vt 3.15000000 -3.15000000
vt -0.21213200 -1.42500000
vt -0.42426400 0.00000000
vt 3.15000000 3.15000000
vt 1.42500000 -0.21213200
vt -0.21213200 4.87500000
vt -0.21213200 -0.36742300
vt 0.00000000 0.00000000
vt 0.30000000 3.15000000
vt 1.42500000 0.21213200
vt -3.15000000 0.21213200
vt 0.00000000 0.21213200
vt -3.15000000 3.45000000
vt 0.30000000 0.00000000
vt -0.05000000 -3.45000000
vt 3.50000000 0.00000000
vt -0.05000000 -0.05000000
vt -0.05000000 0.05000000
vt 3.40000000 0.00000000
vt -0.05000000 3.45000000
vt 3.45000000 0.08660300
vt 3.45000000 0.08660300
vt 3.40000000 0.00000000
vt 0.05000000 -3.45000000
vt 0.05000000 -0.05000000
vt 0.05000000 0.05000000
vt 0.05000000 3.45000000
vt 3.50000000 0.00000000
vt -1.42500000 -0.21213200
vt 3.15000000 -0.21213200
vt 0.30000000 3.15000000
vt 0.00000000 0.00000000
vt 0.30000000 0.00000000
vt 3.15000000 -3.45000000
vt 0.00000000 -0.21213200
vt -1.42500000 0.21213200
vt 0.21213200 -4.87500000
vt 0.21213200 0.36742300
vt -3.15000000 -3.15000000
vt -3.15000000 3.15000000
vt 0.21213200 1.42500000
vt 0.42426400 0.00000000
vt -4.87500000 -0.21213200
vt 3.15000000 0.21213200
vt -4.87500000 0.21213200
vt 6.60000000 3.15000000
vt 0.21213200 0.36742300
vt 0.00000000 0.21213200
vt 3.15000000 3.45000000
vt 6.60000000 0.00000000
vt 3.15000000 0.21213200
vt 6.60000000 3.15000000
vt -0.21213200 0.36742300
vt -0.21213200 -4.87500000
vt 6.60000000 0.00000000
vt 3.45000000 -3.15000000
vt 0.00000000 0.21213200
vt 3.50000000 0.00000000
vt 3.45000000 -0.05000000
vt 3.45000000 0.08660300
vt 3.40000000 0.00000000
vt 3.45000000 0.05000000
vt 3.15000000 -0.21213200
vt 0.00000000 0.00000000
vt -0.21213200 1.42500000
vt 0.30000000 3.15000000
vt 0.30000000 0.00000000
vt 0.00000000 -0.21213200
vt 3.45000000 3.15000000
vt 0.21213200 -1.42500000
vt -3.05000000 0.21213200
vt 0.30000000 3.05000000
vt 0.00000000 0.00000000
vt 0.00000000 0.21213200
vt 0.30000000 0.00000000
vt -3.45000000 -3.15000000
vt 0.21213200 4.87500000
vt 6.60000000 3.05000000
vt 0.21213200 -0.36742300
vt -3.05000000 -0.21213200
vt 6.60000000 0.00000000
vt -3.45000000 3.15000000
vt 0.00000000 -0.21213200
vt -0.15089500 1.72500000
vt -3.05000000 -0.21213200
vt 6.60000000 3.05000000
vt 4.87500000 -0.21213200
vt -0.21213200 -0.36742300
vt 6.60000000 0.00000000
vt -3.15000000 -3.45000000
vt 0.00000000 -0.21213200
vt -0.21213200 -1.42500000
vt 3.15000000 -3.15000000
vt 4.87500000 0.21213200
vt -0.42426400 0.00000000
vt 0.00000000 0.05000000
vt 3.00000000 0.05000000
vt -3.15000000 -3.15000000
vt 3.00000000 0.00000000
vt 0.00000000 0.00000000
vt 3.00000000 0.05000000
vt 0.00000000 0.05000000
vt -3.15000000 -0.15000000
vt 3.00000000 0.00000000
vt 0.00000000 0.00000000
vt 3.15000000 -0.02500000
vt -0.21213200 1.70000000
vt -0.21213200 1.75000000
vt 3.15000000 0.02500000
vt 0.00000000 0.05000000
vt 3.00000000 0.05000000
vt 0.00000000 0.00000000
vt 3.00000000 0.00000000
vt -3.15000000 0.15000000
vt -0.21213200 4.87500000
vt 1.42500000 -0.21213200
vt 3.15000000 3.15000000
vt -0.21213200 -0.36742300
vt 3.00000000 0.05000000
vt 0.00000000 0.05000000
vt -3.15000000 3.15000000
vt 0.00000000 0.00000000
vt 3.00000000 0.00000000
vt 1.42500000 0.21213200
vt 0.30000000 3.05000000
vt -3.05000000 0.21213200
vt 0.00000000 0.00000000
vt 0.30000000 0.00000000
vt -3.15000000 3.45000000
vt 0.00000000 0.21213200
vt 0.00000000 0.05000000
vt 3.00000000 0.05000000
vt 0.00000000 0.00000000
vt -0.15000000 -3.15000000
vt 3.00000000 0.00000000
vt 3.00000000 0.05000000
vt 0.00000000 0.05000000
vt 0.00000000 0.00000000
vt 3.00000000 0.00000000
vt -0.15000000 -0.15000000
vt 0.00000000 0.05000000
vt 3.00000000 0.05000000
vt 3.00000000 0.00000000
vt 0.00000000 0.00000000
vt -0.15000000 0.15000000
vt 3.00000000 0.05000000
vt 0.00000000 0.05000000
vt 3.00000000 0.00000000
vt -0.15000000 3.15000000
vt 0.00000000 0.00000000
vt 1.75000000 0.21213200
vt 0.02500000 -3.15000000
vt 0.02500000 -0.02500000
vt 0.02500000 0.02500000
vt 0.02500000 3.15000000
vt -1.70000000 -0.21213200
vt 1.72500000 0.15089500
vt -1.72500000 -0.15089500
vt 1.70000000 0.21213200
vt -0.02500000 -3.15000000
vt -0.02500000 -0.02500000
vt -0.02500000 0.02500000
vt -0.02500000 3.15000000
vt -1.75000000 -0.21213200
vt 0.00000000 0.05000000
vt 3.00000000 0.05000000
vt 0.00000000 0.00000000
vt 0.15000000 -3.15000000
vt 3.00000000 0.00000000
vt 0.00000000 0.05000000
vt 3.00000000 0.05000000
vt 3.00000000 0.00000000
vt 0.00000000 0.00000000
vt 0.15000000 -0.15000000
vt 0.00000000 3.05000000
vt 3.00000000 3.05000000
vt 0.15000000 0.15000000
vt 3.00000000 0.00000000
vt 0.15000000 0.15000000
vt 0.00000000 0.00000000
vt 0.15000000 3.15000000
vt 0.00000000 3.05000000
vt 3.00000000 3.05000000
vt 3.00000000 0.00000000
vt 0.15000000 3.15000000
vt 0.00000000 0.00000000
vt 3.05000000 -0.21213200
vt 0.00000000 0.00000000
vt 0.30000000 3.05000000
vt -1.42500000 -0.21213200
vt 0.30000000 0.00000000
vt 3.15000000 -3.45000000
vt 0.00000000 -0.21213200
vt 0.21213200 0.36742300
vt -1.42500000 0.21213200
vt 0.21213200 -4.87500000
vt -3.15000000 -3.15000000
vt 0.00000000 0.05000000
vt 3.00000000 0.05000000
vt 3.15000000 -3.15000000
vt 0.00000000 0.00000000
vt 3.00000000 0.00000000
vt 3.00000000 0.05000000
vt 0.00000000 0.05000000
vt 3.15000000 -0.15000000
vt 3.00000000 0.00000000
vt 0.00000000 0.00000000
vt -3.15000000 -0.02500000
vt 0.21213200 -1.75000000
vt -3.15000000 0.02500000
vt 0.21213200 -1.70000000
vt 3.15000000 0.15000000
vt 0.00000000 3.05000000
vt 3.00000000 3.05000000
vt 0.00000000 0.00000000
vt 3.15000000 0.15000000
vt 3.00000000 0.00000000
vt -4.87500000 -0.21213200
vt 0.42426400 0.00000000
vt 0.21213200 1.42500000
vt -3.15000000 3.15000000
vt 0.00000000 3.05000000
vt 3.15000000 3.15000000
vt 3.00000000 3.05000000
vt 3.00000000 0.00000000
vt 0.00000000 0.00000000
vt 3.15000000 3.15000000
vt 3.05000000 0.21213200
vt -4.87500000 0.21213200
vt 0.21213200 0.36742300
vt 6.60000000 3.05000000
vt 6.60000000 0.00000000
vt 3.15000000 3.45000000
vt 0.00000000 0.21213200
vt 0.15089500 -1.72500000
vt 6.60000000 3.05000000
vt -0.21213200 -4.87500000
vt 3.05000000 0.21213200
vt -0.21213200 0.36742300
vt 6.60000000 0.00000000
vt 0.00000000 0.21213200
vt 3.45000000 -3.15000000
vt -0.21213200 1.42500000
vt 0.00000000 0.00000000
vt 0.30000000 3.05000000
vt 3.05000000 -0.21213200
vt 0.00000000 -0.21213200
vt 3.45000000 3.15000000
vt 0.30000000 0.00000000
vt 0.00000000 0.00000000
vt 6.30000000 0.00000000
vt 3.45000000 -3.15000000
vt 6.30000000 0.10000000
vt -3.45000000 -3.15000000
vt 0.00000000 0.10000000
vt 0.42426400 0.00000000
vt 0.00000000 0.00000000
vt 3.45000000 3.15000000
vt -3.45000000 3.15000000
vt 0.42426400 0.10000000
vt 0.00000000 0.10000000
vt 0.42426400 0.00000000
vt 0.00000000 0.00000000
vt 3.15000000 -3.45000000
vt 0.42426400 0.10000000
vt -3.15000000 -3.45000000
vt 0.00000000 0.10000000
vt 2.80000000 0.10000000
vt -0.10000000 0.00000000
vt -3.15000000 -3.05000000
vt -3.15000000 -3.05000000
vt -0.15000000 0.00000000
vt 2.80000000 0.15000000
vt -0.10000000 0.15708000
vt 0.00000000 0.10000000
vt -3.15000000 -0.25000000
vt 0.00000000 0.15000000
vt -3.15000000 -0.25000000
vt -0.15000000 0.15708000
vt 2.80000000 0.10000000
vt -3.15000000 0.25000000
vt -0.10000000 0.00000000
vt 2.80000000 0.15000000
vt -0.15000000 0.00000000
vt -3.15000000 0.25000000
vt -0.10000000 0.15708000
vt -3.15000000 3.05000000
vt 0.00000000 0.10000000
vt 0.00000000 0.15000000
vt -0.15000000 0.15708000
vt -3.15000000 3.05000000
vt 6.30000000 0.00000000
vt 0.00000000 0.00000000
vt 3.15000000 3.45000000
vt 0.00000000 0.10000000
vt 6.30000000 0.10000000
vt -3.15000000 3.45000000
vt -3.13660300 -3.10000000
vt -0.10000000 0.05236000
vt -0.15000000 0.05236000
vt -3.13660300 -3.10000000
vt -0.10000000 0.10472000
vt -3.13660300 -0.20000000
vt -3.13660300 -0.20000000
vt -0.15000000 0.10472000
vt -3.13660300 0.20000000
vt -0.10000000 0.05236000
vt -0.15000000 0.05236000
vt -3.13660300 0.20000000
vt -3.13660300 3.10000000
vt -0.10000000 0.10472000
vt -3.13660300 3.10000000
vt -0.15000000 0.10472000
vt -3.10000000 -3.13660300
vt -0.10000000 0.10472000
vt -3.10000000 -3.13660300
vt -0.15000000 0.10472000
vt -0.10000000 0.05236000
vt -3.10000000 -0.16339700
vt -3.10000000 -0.16339700
vt -0.15000000 0.05236000
vt -0.10000000 0.10472000
vt -3.10000000 0.16339700
vt -3.10000000 0.16339700
vt -0.15000000 0.10472000
vt -3.10000000 3.13660300
vt -0.10000000 0.05236000
vt -0.15000000 0.05236000
vt -3.10000000 3.13660300
vt -0.10000000 0.15708000
vt -3.05000000 -3.15000000
vt 0.00000000 0.10000000
vt -0.15000000 0.15708000
vt 0.00000000 0.15000000
vt -3.05000000 -3.15000000
vt -3.05000000 -0.15000000
vt -0.10000000 0.00000000
vt 2.80000000 0.10000000
vt -0.15000000 0.00000000
vt 2.80000000 0.15000000
vt -3.05000000 -0.15000000
vt -0.10000000 0.15708000
vt 0.00000000 0.10000000
vt -3.05000000 0.15000000
vt -0.15000000 0.15708000
vt 0.00000000 0.15000000
vt -3.05000000 0.15000000
vt -0.10000000 0.00000000
vt 2.80000000 0.10000000
vt -3.05000000 3.15000000
vt 2.80000000 0.15000000
vt -3.05000000 3.15000000
vt -0.15000000 0.00000000
vt -0.25000000 -3.15000000
vt -0.10000000 0.00000000
vt 2.80000000 0.10000000
vt 2.80000000 0.15000000
vt -0.15000000 0.00000000
vt -0.25000000 -3.15000000
vt 0.00000000 0.10000000
vt -0.10000000 0.15708000
vt -0.25000000 -0.15000000
vt -0.15000000 0.15708000
vt 0.00000000 0.15000000
vt -0.25000000 -0.15000000
vt -0.25000000 0.15000000
vt 2.80000000 0.10000000
vt -0.10000000 0.00000000
vt -0.15000000 0.00000000
vt 2.80000000 0.15000000
vt -0.25000000 0.15000000
vt -0.25000000 3.15000000
vt 0.00000000 0.10000000
vt -0.10000000 0.15708000
vt -0.15000000 0.15708000
vt -0.25000000 3.15000000
vt 0.00000000 0.15000000
vt -0.20000000 -3.13660300
vt -0.10000000 0.05236000
vt -0.15000000 0.05236000
vt -0.20000000 -3.13660300
vt -0.20000000 -0.16339700
vt -0.10000000 0.10472000
vt -0.15000000 0.10472000
vt -0.20000000 -0.16339700
vt -0.10000000 0.05236000
vt -0.20000000 0.16339700
vt -0.20000000 0.16339700
vt -0.15000000 0.05236000
vt -0.10000000 0.10472000
vt -0.20000000 3.13660300
vt -0.20000000 3.13660300
vt -0.15000000 0.10472000
vt -0.10000000 0.10472000
vt -0.16339700 -3.10000000
vt -0.15000000 0.10472000
vt -0.16339700 -3.10000000
vt -0.10000000 0.05236000
vt -0.16339700 -0.20000000
vt -0.16339700 -0.20000000
vt -0.15000000 0.05236000
vt -0.16339700 0.20000000
vt -0.10000000 0.10472000
vt -0.15000000 0.10472000
vt -0.16339700 0.20000000
vt -0.16339700 3.10000000
vt -0.10000000 0.05236000
vt -0.15000000 0.05236000
vt -0.16339700 3.10000000
vt -0.15000000 -3.05000000
vt 0.00000000 0.10000000
vt -0.10000000 0.15708000
vt -0.15000000 0.15708000
vt -0.15000000 -3.05000000
vt 0.00000000 0.15000000
vt 2.80000000 0.10000000
vt -0.10000000 0.00000000
vt -0.15000000 -0.25000000
vt 2.80000000 0.15000000
vt -0.15000000 0.00000000
vt -0.15000000 -0.25000000
vt -0.10000000 0.15708000
vt 0.00000000 0.10000000
vt -0.15000000 0.25000000
vt -0.15000000 0.25000000
vt 0.00000000 0.15000000
vt -0.15000000 0.15708000
vt -0.15000000 3.05000000
vt -0.10000000 0.00000000
vt 2.80000000 0.10000000
vt 2.80000000 0.15000000
vt -0.15000000 0.00000000
vt -0.15000000 3.05000000
vt -0.10000000 0.00000000
vt 2.80000000 0.10000000
vt 0.15000000 -3.05000000
vt 2.80000000 0.15000000
vt 0.15000000 -3.05000000
vt -0.15000000 0.00000000
vt -0.10000000 0.15708000
vt 0.00000000 0.10000000
vt 0.15000000 -0.25000000
vt 0.15000000 -0.25000000
vt 0.00000000 0.15000000
vt -0.15000000 0.15708000
vt 2.80000000 0.10000000
vt 0.15000000 0.25000000
vt -0.10000000 0.00000000
vt 2.80000000 0.15000000
vt -0.15000000 0.00000000
vt 0.15000000 0.25000000
vt 0.00000000 0.10000000
vt 0.15000000 3.05000000
vt -0.10000000 0.15708000
vt 0.00000000 0.15000000
vt -0.15000000 0.15708000
vt 0.15000000 3.05000000
vt -0.10000000 0.05236000
vt 0.16339700 -3.10000000
vt 0.16339700 -3.10000000
vt -0.15000000 0.05236000
vt -0.10000000 0.10472000
vt 0.16339700 -0.20000000
vt 0.16339700 -0.20000000
vt -0.15000000 0.10472000
vt 0.16339700 0.20000000
vt -0.10000000 0.05236000
vt -0.15000000 0.05236000
vt 0.16339700 0.20000000
vt 0.16339700 3.10000000
vt -0.10000000 0.10472000
vt 0.16339700 3.10000000
vt -0.15000000 0.10472000
vt -0.10000000 0.10472000
vt 0.20000000 -3.13660300
vt 0.20000000 -3.13660300
vt -0.15000000 0.10472000
vt -0.10000000 0.05236000
vt 0.20000000 -0.16339700
vt 0.20000000 -0.16339700
vt -0.15000000 0.05236000
vt 0.20000000 0.16339700
vt -0.10000000 0.10472000
vt 0.20000000 0.16339700
vt -0.15000000 0.10472000
vt -0.10000000 0.05236000
vt 0.20000000 3.13660300
vt -0.15000000 0.05236000
vt 0.20000000 3.13660300
vt -0.10000000 0.15708000
vt 0.00000000 0.10000000
vt 0.25000000 -3.15000000
vt -0.15000000 0.15708000
vt 0.25000000 -3.15000000
vt 0.00000000 0.15000000
vt 2.80000000 0.10000000
vt -0.10000000 0.00000000
vt 0.25000000 -0.15000000
vt 0.25000000 -0.15000000
vt -0.15000000 0.00000000
vt 2.80000000 0.15000000
vt 0.25000000 0.15000000
vt 0.00000000 0.10000000
vt -0.10000000 0.15708000
vt 0.25000000 0.15000000
vt 0.00000000 0.15000000
vt -0.15000000 0.15708000
vt 0.25000000 3.15000000
vt 2.80000000 0.10000000
vt -0.10000000 0.00000000
vt 0.25000000 3.15000000
vt -0.15000000 0.00000000
vt 2.80000000 0.15000000
vt -0.10000000 0.00000000
vt 2.80000000 0.10000000
vt 3.05000000 -3.15000000
vt 2.80000000 0.15000000
vt 3.05000000 -3.15000000
vt -0.15000000 0.00000000
vt 0.00000000 0.10000000
vt -0.10000000 0.15708000
vt 3.05000000 -0.15000000
vt 3.05000000 -0.15000000
vt 0.00000000 0.15000000
vt -0.15000000 0.15708000
vt -0.10000000 0.00000000
vt 3.05000000 0.15000000
vt 2.80000000 0.10000000
vt -0.15000000 0.00000000
vt 2.80000000 0.15000000
vt 3.05000000 0.15000000
vt -0.10000000 0.15708000
vt 3.05000000 3.15000000
vt 0.00000000 0.10000000
vt -0.15000000 0.15708000
vt 0.00000000 0.15000000
vt 3.05000000 3.15000000
vt -0.10000000 0.05236000
vt 3.10000000 -3.13660300
vt 3.10000000 -3.13660300
vt -0.15000000 0.05236000
vt -0.10000000 0.10472000
vt 3.10000000 -0.16339700
vt -0.15000000 0.10472000
vt 3.10000000 -0.16339700
vt -0.10000000 0.05236000
vt 3.10000000 0.16339700
vt 3.10000000 0.16339700
vt -0.15000000 0.05236000
vt -0.10000000 0.10472000
vt 3.10000000 3.13660300
vt 3.10000000 3.13660300
vt -0.15000000 0.10472000
vt -0.10000000 0.10472000
vt 3.13660300 -3.10000000
vt 3.13660300 -3.10000000
vt -0.15000000 0.10472000
vt -0.10000000 0.05236000
vt 3.13660300 -0.20000000
vt 3.13660300 -0.20000000
vt -0.15000000 0.05236000
vt -0.10000000 0.10472000
vt 3.13660300 0.20000000
vt -0.15000000 0.10472000
vt 3.13660300 0.20000000
vt 3.13660300 3.10000000
vt -0.10000000 0.05236000
vt -0.15000000 0.05236000
vt 3.13660300 3.10000000
vt 0.00000000 0.00000000
vt -3.15000000 -3.45000000
vt 6.30000000 0.00000000
vt 0.00000000 0.10000000
vt 6.30000000 0.10000000
vt 3.15000000 -3.45000000
vt 0.00000000 0.10000000
vt -0.10000000 0.15708000
vt 3.15000000 -3.05000000
vt -0.15000000 0.15708000
vt 3.15000000 -3.05000000
vt 0.00000000 0.15000000
vt 2.80000000 0.10000000
vt 3.15000000 -0.25000000
vt -0.10000000 0.00000000
vt 3.15000000 -0.25000000
vt 2.80000000 0.15000000
vt -0.15000000 0.00000000
vt 0.00000000 0.10000000
vt 3.15000000 0.25000000
vt -0.10000000 0.15708000
vt 0.00000000 0.15000000
vt -0.15000000 0.15708000
vt 3.15000000 0.25000000
vt 3.15000000 3.05000000
vt -0.10000000 0.00000000
vt 2.80000000 0.10000000
vt 2.80000000 0.15000000
vt -0.15000000 0.00000000
vt 3.15000000 3.05000000
vt 0.42426400 0.00000000
vt -3.15000000 3.45000000
vt 0.00000000 0.00000000
vt 0.42426400 0.10000000
vt 0.00000000 0.10000000
vt 3.15000000 3.45000000
vt 0.42426400 0.00000000
vt -3.45000000 -3.15000000
vt 0.00000000 0.00000000
vt 3.45000000 -3.15000000
vt 0.00000000 0.10000000
vt 0.42426400 0.10000000
vt 0.00000000 0.00000000
vt -3.45000000 3.15000000
vt 6.30000000 0.00000000
vt 0.00000000 0.10000000
vt 6.30000000 0.10000000
vt 3.45000000 3.15000000
f 50/50/50 48/48/48 60/60/60
f 60/60/60 48/48/48 58/58/58
f 58/58/58 48/48/48 23/23/23
f 23/23/23 48/48/48 24/24/24
f 24/24/24 48/48/48 43/43/43
f 42/42/42 44/44/44 26/26/26
f 26/26/26 44/44/44 6/6/6
f 6/6/6 44/44/44 8/8/8
f 47/47/47 40/40/40 45/45/45
f 45/45/45 40/40/40 19/19/19
f 45/45/45 19/19/19 11/11/11
f 88/88/88 87/87/87 94/94/94
f 94/94/94 87/87/87 93/93/93
f 93/93/93 87/87/87 79/79/79
f 79/79/79 87/87/87 82/82/82
f 82/82/82 87/87/87 85/85/85
f 51/51/51 61/61/61 52/52/52
f 52/52/52 61/61/61 83/83/83
f 52/52/52 83/83/83 86/86/86
f 9/9/9 10/10/10 7/7/7
f 7/7/7 10/10/10 2/2/2
f 2/2/2 10/10/10 15/15/15
f 15/15/15 10/10/10 18/18/18
f 18/18/18 10/10/10 12/12/12
f 30/30/30 20/20/20 3/3/3
f 5/5/5 4/4/4 25/25/25
f 25/25/25 4/4/4 22/22/22
f 34/34/34 13/13/13 35/35/35
f 39/39/39 38/38/38 17/17/17
f 17/17/17 38/38/38 16/16/16
f 65/65/65 80/80/80 59/59/59
f 62/62/62 57/57/57 84/84/84
f 84/84/84 57/57/57 78/78/78
f 27/27/27 63/63/63 21/21/21
f 21/21/21 63/63/63 56/56/56
f 69/69/69 74/74/74 91/91/91
f 95/95/95 90/90/90 75/75/75
f 75/75/75 90/90/90 71/71/71
f 81/81/81 64/64/64 92/92/92
f 92/92/92 64/64/64 68/68/68
f 70/70/70 32/32/32 72/72/72
f 72/72/72 32/32/32 37/37/37
f 14/14/14 33/33/33 1/1/1
f 1/1/1 33/33/33 29/29/29
f 66/66/66 28/28/28 67/67/67
f 67/67/67 28/28/28 31/31/31
f 55/55/55 77/77/77 49/49/49
f 49/49/49 77/77/77 73/73/73
f 49/49/49 73/73/73 36/36/36
f 36/36/36 41/41/41 49/49/49
f 49/49/49 41/41/41 46/46/46
f 54/54/54 53/53/53 76/76/76
f 76/76/76 53/53/53 96/96/96
f 96/96/96 53/53/53 89/89/89
f 178/178/178 184/184/184 121/121/121
f 121/121/121 184/184/184 114/114/114
f 114/114/114 184/184/184 217/217/217
f 217/217/217 184/184/184 222/222/222
f 222/222/222 184/184/184 186/186/186
f 188/188/188 235/235/235 187/187/187
f 187/187/187 235/235/235 224/224/224
f 191/191/191 185/185/185 245/245/245
f 245/245/245 185/185/185 256/256/256
f 256/256/256 185/185/185 151/151/151
f 151/151/151 185/185/185 143/143/143
f 143/143/143 185/185/185 183/183/183
f 181/181/181 136/136/136 182/182/182
f 182/182/182 136/136/136 144/144/144
f 179/179/179 120/120/120 180/180/180
f 180/180/180 120/120/120 133/133/133
f 190/190/190 248/248/248 189/189/189
f 189/189/189 248/248/248 237/237/237
f 135/135/135 111/111/111 142/142/142
f 142/142/142 111/111/111 104/104/104
f 104/104/104 111/111/111 97/97/97
f 97/97/97 111/111/111 119/119/119
f 119/119/119 111/111/111 134/134/134
f 230/230/230 225/225/225 233/233/233
f 233/233/233 225/225/225 228/228/228
f 226/226/226 192/192/192 229/229/229
f 229/229/229 192/192/192 194/194/194
f 173/173/173 168/168/168 175/175/175
f 175/175/175 168/168/168 171/171/171
f 169/169/169 137/137/137 170/170/170
f 170/170/170 137/137/137 139/139/139
f 159/159/159 123/123/123 162/162/162
f 162/162/162 123/123/123 127/127/127
f 124/124/124 129/129/129 126/126/126
f 126/126/126 129/129/129 132/132/132
f 122/122/122 115/115/115 100/100/100
f 101/101/101 98/98/98 118/118/118
f 118/118/118 98/98/98 112/112/112
f 145/145/145 106/106/106 154/154/154
f 157/157/157 153/153/153 110/110/110
f 110/110/110 153/153/153 107/107/107
f 221/221/221 266/266/266 215/215/215
f 220/220/220 214/214/214 268/268/268
f 268/268/268 214/214/214 265/265/265
f 246/246/246 257/257/257 271/271/271
f 274/274/274 273/273/273 261/261/261
f 261/261/261 273/273/273 255/255/255
f 238/238/238 247/247/247 262/262/262
f 262/262/262 247/247/247 270/270/270
f 262/262/262 270/270/270 264/264/264
f 264/264/264 223/223/223 262/262/262
f 262/262/262 223/223/223 236/236/236
f 113/113/113 216/216/216 116/116/116
f 116/116/116 216/216/216 218/218/218
f 263/263/263 272/272/272 267/267/267
f 267/267/267 272/272/272 276/276/276
f 250/250/250 208/208/208 239/239/239
f 239/239/239 208/208/208 204/204/204
f 138/138/138 147/147/147 140/140/140
f 140/140/140 147/147/147 149/149/149
f 146/146/146 174/174/174 150/150/150
f 150/150/150 174/174/174 177/177/177
f 128/128/128 164/164/164 131/131/131
f 131/131/131 164/164/164 165/165/165
f 163/163/163 158/158/158 166/166/166
f 166/166/166 158/158/158 160/160/160
f 193/193/193 197/197/197 196/196/196
f 196/196/196 197/197/197 200/200/200
f 198/198/198 231/231/231 199/199/199
f 199/199/199 231/231/231 234/234/234
f 253/253/253 211/211/211 249/249/249
f 249/249/249 211/211/211 210/210/210
f 242/242/242 252/252/252 240/240/240
f 240/240/240 252/252/252 251/251/251
f 207/207/207 244/244/244 202/202/202
f 202/202/202 244/244/244 241/241/241
f 213/213/213 205/205/205 209/209/209
f 209/209/209 205/205/205 203/203/203
f 102/102/102 108/108/108 99/99/99
f 99/99/99 108/108/108 105/105/105
f 155/155/155 259/259/259 152/152/152
f 152/152/152 259/259/259 258/258/258
f 117/117/117 125/125/125 103/103/103
f 103/103/103 125/125/125 130/130/130
f 103/103/103 130/130/130 141/141/141
f 141/141/141 130/130/130 167/167/167
f 141/141/141 167/167/167 172/172/172
f 172/172/172 167/167/167 201/201/201
f 172/172/172 201/201/201 206/206/206
f 206/206/206 201/201/201 232/232/232
f 206/206/206 232/232/232 243/243/243
f 243/243/243 232/232/232 269/269/269
f 243/243/243 269/269/269 275/275/275
f 125/125/125 117/117/117 161/161/161
f 161/161/161 117/117/117 219/219/219
f 161/161/161 219/219/219 195/195/195
f 195/195/195 219/219/219 227/227/227
f 227/227/227 219/219/219 269/269/269
f 227/227/227 269/269/269 232/232/232
f 243/243/243 275/275/275 254/254/254
f 254/254/254 275/275/275 260/260/260
f 254/254/254 260/260/260 212/212/212
f 212/212/212 260/260/260 156/156/156
f 212/212/212 156/156/156 176/176/176
f 176/176/176 156/156/156 148/148/148
f 148/148/148 156/156/156 109/109/109
f 148/148/148 109/109/109 141/141/141
f 141/141/141 109/109/109 103/103/103
f 172/172/172 206/206/206 176/176/176
f 176/176/176 206/206/206 212/212/212
f 161/161/161 195/195/195 167/167/167
f 167/167/167 195/195/195 201/201/201
f 604/604/604 606/606/606 581/581/581
f 581/581/581 606/606/606 584/584/584
f 581/581/581 584/584/584 565/565/565
f 565/565/565 584/584/584 568/568/568
f 565/565/565 568/568/568 541/541/541
f 541/541/541 568/568/568 546/546/546
f 544/544/544 522/522/522 542/542/542
f 542/542/542 522/522/522 518/518/518
f 517/517/517 520/520/520 501/501/501
f 501/501/501 520/520/520 504/504/504
f 501/501/501 504/504/504 485/485/485
f 485/485/485 504/504/504 488/488/488
f 485/485/485 488/488/488 461/461/461
f 461/461/461 488/488/488 466/466/466
f 464/464/464 471/471/471 462/462/462
f 462/462/462 471/471/471 468/468/468
f 467/467/467 472/472/472 489/489/489
f 489/489/489 472/472/472 492/492/492
f 489/489/489 492/492/492 505/505/505
f 505/505/505 492/492/492 508/508/508
f 505/505/505 508/508/508 524/524/524
f 524/524/524 508/508/508 527/527/527
f 528/528/528 551/551/551 523/523/523
f 523/523/523 551/551/551 547/547/547
f 548/548/548 552/552/552 569/569/569
f 569/569/569 552/552/552 571/571/571
f 569/569/569 571/571/571 585/585/585
f 585/585/585 571/571/571 588/588/588
f 585/585/585 588/588/588 611/611/611
f 611/611/611 588/588/588 614/614/614
f 613/613/613 608/608/608 609/609/609
f 609/609/609 608/608/608 603/603/603
f 559/559/559 562/562/562 577/577/577
f 577/577/577 562/562/562 580/580/580
f 577/577/577 580/580/580 594/594/594
f 594/594/594 580/580/580 595/595/595
f 594/594/594 595/595/595 622/622/622
f 622/622/622 595/595/595 625/625/625
f 624/624/624 618/618/618 623/623/623
f 623/623/623 618/618/618 615/615/615
f 617/617/617 619/619/619 589/589/589
f 589/589/589 619/619/619 591/591/591
f 589/589/589 591/591/591 573/573/573
f 573/573/573 591/591/591 576/576/576
f 573/573/573 576/576/576 553/553/553
f 553/553/553 576/576/576 556/556/556
f 557/557/557 533/533/533 555/555/555
f 555/555/555 533/533/533 530/530/530
f 531/531/531 534/534/534 510/510/510
f 510/510/510 534/534/534 512/512/512
f 510/510/510 512/512/512 494/494/494
f 494/494/494 512/512/512 495/495/495
f 494/494/494 495/495/495 475/475/475
f 475/475/475 495/495/495 477/477/477
f 476/476/476 482/482/482 473/473/473
f 473/473/473 482/482/482 479/479/479
f 481/481/481 483/483/483 498/498/498
f 498/498/498 483/483/483 500/500/500
f 498/498/498 500/500/500 513/513/513
f 513/513/513 500/500/500 515/515/515
f 513/513/513 515/515/515 537/537/537
f 537/537/537 515/515/515 539/539/539
f 540/540/540 563/563/563 536/536/536
f 536/536/536 563/563/563 561/561/561
f 357/357/357 360/360/360 342/342/342
f 342/342/342 360/360/360 344/344/344
f 342/342/342 344/344/344 326/326/326
f 326/326/326 344/344/344 327/327/327
f 326/326/326 327/327/327 296/296/296
f 296/296/296 327/327/327 299/299/299
f 300/300/300 304/304/304 295/295/295
f 295/295/295 304/304/304 302/302/302
f 301/301/301 306/306/306 329/329/329
f 329/329/329 306/306/306 332/332/332
f 329/329/329 332/332/332 345/345/345
f 345/345/345 332/332/332 348/348/348
f 345/345/345 348/348/348 364/364/364
f 364/364/364 348/348/348 366/366/366
f 367/367/367 391/391/391 365/365/365
f 365/365/365 391/391/391 387/387/387
f 388/388/388 390/390/390 410/410/410
f 410/410/410 390/390/390 411/411/411
f 410/410/410 411/411/411 425/425/425
f 425/425/425 411/411/411 428/428/428
f 425/425/425 428/428/428 444/444/444
f 444/444/444 428/428/428 447/447/447
f 446/446/446 442/442/442 443/443/443
f 443/443/443 442/442/442 438/438/438
f 439/439/439 440/440/440 421/421/421
f 421/421/421 440/440/440 423/423/423
f 421/421/421 423/423/423 406/406/406
f 406/406/406 423/423/423 407/407/407
f 406/406/406 407/407/407 382/382/382
f 382/382/382 407/407/407 385/385/385
f 384/384/384 361/361/361 383/383/383
f 383/383/383 361/361/361 359/359/359
f 401/401/401 402/402/402 417/417/417
f 417/417/417 402/402/402 420/420/420
f 417/417/417 420/420/420 434/434/434
f 434/434/434 420/420/420 435/435/435
f 434/434/434 435/435/435 456/456/456
f 456/456/456 435/435/435 459/459/459
f 458/458/458 453/453/453 457/457/457
f 457/457/457 453/453/453 450/450/450
f 449/449/449 454/454/454 430/430/430
f 430/430/430 454/454/454 431/431/431
f 430/430/430 431/431/431 413/413/413
f 413/413/413 431/431/431 416/416/416
f 413/413/413 416/416/416 395/395/395
f 395/395/395 416/416/416 396/396/396
f 397/397/397 373/373/373 394/394/394
f 394/394/394 373/373/373 370/370/370
f 369/369/369 372/372/372 349/349/349
f 349/349/349 372/372/372 352/352/352
f 349/349/349 352/352/352 334/334/334
f 334/334/334 352/352/352 335/335/335
f 334/334/334 335/335/335 309/309/309
f 309/309/309 335/335/335 311/311/311
f 310/310/310 316/316/316 307/307/307
f 307/307/307 316/316/316 315/315/315
f 313/313/313 317/317/317 338/338/338
f 338/338/338 317/317/317 340/340/340
f 338/338/338 340/340/340 354/354/354
f 354/354/354 340/340/340 355/355/355
f 354/354/354 355/355/355 375/375/375
f 375/375/375 355/355/355 380/380/380
f 378/378/378 404/404/404 376/376/376
f 376/376/376 404/404/404 400/400/400
f 321/321/321 628/628/628 285/285/285
f 285/285/285 628/628/628 279/279/279
f 279/279/279 628/628/628 640/640/640
f 279/279/279 640/640/640 291/291/291
f 291/291/291 640/640/640 634/634/634
f 291/291/291 634/634/634 598/598/598
f 639/639/639 627/627/627 642/642/642
f 642/642/642 627/627/627 630/630/630
f 635/635/635 641/641/641 637/637/637
f 637/637/637 641/641/641 643/643/643
f 597/597/597 633/633/633 600/600/600
f 600/600/600 633/633/633 638/638/638
f 290/290/290 599/599/599 294/294/294
f 294/294/294 599/599/599 601/601/601
f 277/277/277 289/289/289 282/282/282
f 282/282/282 289/289/289 292/292/292
f 284/284/284 278/278/278 288/288/288
f 288/288/288 278/278/278 280/280/280
f 320/320/320 283/283/283 322/322/322
f 322/322/322 283/283/283 287/287/287
f 629/629/629 319/319/319 631/631/631
f 631/631/631 319/319/319 323/323/323
f 490/490/490 426/426/426 469/469/469
f 469/469/469 426/426/426 445/445/445
f 469/469/469 445/445/445 463/463/463
f 463/463/463 445/445/445 437/437/437
f 463/463/463 437/437/437 486/486/486
f 486/486/486 437/437/437 422/422/422
f 486/486/486 422/422/422 502/502/502
f 502/502/502 422/422/422 405/405/405
f 502/502/502 405/405/405 519/519/519
f 519/519/519 405/405/405 381/381/381
f 519/519/519 381/381/381 602/602/602
f 602/602/602 381/381/381 293/293/293
f 293/293/293 381/381/381 358/358/358
f 293/293/293 358/358/358 341/341/341
f 506/506/506 414/414/414 490/490/490
f 490/490/490 414/414/414 409/409/409
f 490/490/490 409/409/409 426/426/426
f 525/525/525 529/529/529 506/506/506
f 506/506/506 529/529/529 509/509/509
f 506/506/506 509/509/509 429/429/429
f 429/429/429 509/509/509 493/493/493
f 429/429/429 493/493/493 451/451/451
f 451/451/451 493/493/493 474/474/474
f 451/451/451 474/474/474 455/455/455
f 455/455/455 474/474/474 480/480/480
f 455/455/455 480/480/480 433/433/433
f 433/433/433 480/480/480 497/497/497
f 433/433/433 497/497/497 418/418/418
f 418/418/418 497/497/497 514/514/514
f 418/418/418 514/514/514 399/399/399
f 399/399/399 514/514/514 535/535/535
f 399/399/399 535/535/535 324/324/324
f 324/324/324 535/535/535 632/632/632
f 632/632/632 535/535/535 560/560/560
f 632/632/632 560/560/560 578/578/578
f 525/525/525 549/549/549 529/529/529
f 529/529/529 549/549/549 554/554/554
f 554/554/554 549/549/549 570/570/570
f 554/554/554 570/570/570 574/574/574
f 574/574/574 570/570/570 586/586/586
f 574/574/574 586/586/586 590/590/590
f 590/590/590 586/586/586 610/610/610
f 590/590/590 610/610/610 616/616/616
f 616/616/616 610/610/610 636/636/636
f 616/616/616 636/636/636 644/644/644
f 610/610/610 605/605/605 636/636/636
f 636/636/636 605/605/605 582/582/582
f 636/636/636 582/582/582 566/566/566
f 636/636/636 566/566/566 602/602/602
f 602/602/602 566/566/566 543/543/543
f 602/602/602 543/543/543 519/519/519
f 632/632/632 578/578/578 644/644/644
f 644/644/644 578/578/578 593/593/593
f 644/644/644 593/593/593 621/621/621
f 621/621/621 616/616/616 644/644/644
f 409/409/409 393/393/393 389/389/389
f 389/389/389 393/393/393 371/371/371
f 389/389/389 371/371/371 363/363/363
f 363/363/363 371/371/371 346/346/346
f 346/346/346 371/371/371 350/350/350
f 346/346/346 350/350/350 330/330/330
f 330/330/330 350/350/350 333/333/333
f 330/330/330 333/333/333 303/303/303
f 303/303/303 333/333/333 308/308/308
f 303/303/303 308/308/308 281/281/281
f 281/281/281 308/308/308 286/286/286
f 286/286/286 308/308/308 314/314/314
f 286/286/286 314/314/314 337/337/337
f 293/293/293 341/341/341 281/281/281
f 281/281/281 341/341/341 325/325/325
f 281/281/281 325/325/325 297/297/297
f 297/297/297 303/303/303 281/281/281
f 337/337/337 353/353/353 286/286/286
f 286/286/286 353/353/353 324/324/324
f 324/324/324 353/353/353 377/377/377
f 324/324/324 377/377/377 399/399/399
f 429/429/429 414/414/414 506/506/506
f 414/414/414 393/393/393 409/409/409
f 336/336/336 351/351/351 312/312/312
f 312/312/312 351/351/351 374/374/374
f 312/312/312 374/374/374 398/398/398
f 415/415/415 452/452/452 398/398/398
f 398/398/398 452/452/452 318/318/318
f 398/398/398 318/318/318 312/312/312
f 415/415/415 432/432/432 452/452/452
f 318/318/318 452/452/452 379/379/379
f 379/379/379 452/452/452 460/460/460
f 379/379/379 460/460/460 403/403/403
f 403/403/403 460/460/460 436/436/436
f 403/403/403 436/436/436 419/419/419
f 356/356/356 339/339/339 379/379/379
f 379/379/379 339/339/339 318/318/318
f 427/427/427 392/392/392 448/448/448
f 448/448/448 392/392/392 368/368/368
f 448/448/448 368/368/368 441/441/441
f 441/441/441 368/368/368 305/305/305
f 441/441/441 305/305/305 386/386/386
f 386/386/386 305/305/305 298/298/298
f 386/386/386 298/298/298 362/362/362
f 362/362/362 298/298/298 343/343/343
f 343/343/343 298/298/298 328/328/328
f 427/427/427 412/412/412 392/392/392
f 347/347/347 331/331/331 368/368/368
f 368/368/368 331/331/331 305/305/305
f 386/386/386 408/408/408 441/441/441
f 441/441/441 408/408/408 424/424/424
f 496/496/496 511/511/511 478/478/478
f 478/478/478 511/511/511 532/532/532
f 478/478/478 532/532/532 558/558/558
f 575/575/575 620/620/620 558/558/558
f 558/558/558 620/620/620 484/484/484
f 558/558/558 484/484/484 478/478/478
f 575/575/575 592/592/592 620/620/620
f 484/484/484 620/620/620 538/538/538
f 538/538/538 620/620/620 626/626/626
f 538/538/538 626/626/626 564/564/564
f 564/564/564 626/626/626 596/596/596
f 564/564/564 596/596/596 579/579/579
f 516/516/516 499/499/499 538/538/538
f 538/538/538 499/499/499 484/484/484
f 507/507/507 491/491/491 526/526/526
f 526/526/526 491/491/491 470/470/470
f 526/526/526 470/470/470 607/607/607
f 607/607/607 470/470/470 545/545/545
f 607/607/607 545/545/545 567/567/567
f 470/470/470 465/465/465 545/545/545
f 545/545/545 465/465/465 521/521/521
f 521/521/521 465/465/465 503/503/503
f 503/503/503 465/465/465 487/487/487
f 567/567/567 583/583/583 607/607/607
f 607/607/607 612/612/612 526/526/526
f 526/526/526 612/612/612 550/550/550
f 550/550/550 612/612/612 587/587/587
f 550/550/550 587/587/587 572/572/572

