mtllib material.mtl
usemtl 235,235,235
v -34.50000000 -0.50000000 -0.00000000
v -34.50000000 0.00000000 -0.86602500
v -34.50000000 0.00000000 -0.86602500
v -34.50000000 0.50000000 0.00000000
v -0.50000000 -34.50000000 -0.00000000
v -0.50000000 -0.50000000 -0.00000000
v -0.50000000 -0.50000000 -0.00000000
v -0.50000000 0.50000000 0.00000000
v -0.50000000 0.50000000 0.00000000
v -0.50000000 34.50000000 0.00000000
v 0.00000000 -34.50000000 -0.86602500
v 0.00000000 -34.50000000 -0.86602500
v 0.00000000 0.00000000 -0.86602500
v 0.00000000 0.00000000 -0.86602500
v 0.00000000 0.00000000 -0.86602500
v 0.00000000 0.00000000 -0.86602500
v 0.00000000 0.00000000 -0.86602500
v 0.00000000 0.00000000 -0.86602500
v 0.00000000 0.00000000 -0.86602500
v 0.00000000 0.00000000 -0.86602500
v 0.00000000 34.50000000 -0.86602500
v 0.00000000 34.50000000 -0.86602500
v 0.50000000 -34.50000000 -0.00000000
v 0.50000000 -0.50000000 -0.00000000
v 0.50000000 -0.50000000 -0.00000000
v 0.50000000 0.50000000 0.00000000
v 0.50000000 0.50000000 0.00000000
v 0.50000000 34.50000000 0.00000000
v 34.50000000 -0.50000000 -0.00000000
v 34.50000000 0.00000000 -0.86602500
v 34.50000000 0.00000000 -0.86602500
v 34.50000000 0.50000000 0.00000000
vn 0.00000000 0.08660300 0.05000000
vn 0.00000000 0.08660300 0.05000000
vn 0.00000000 -0.08660300 0.05000000
vn 0.00000000 -0.08660300 0.05000000
vn 0.08660300 -0.00000000 0.05000000
vn 0.08660300 -0.00000000 0.05000000
vn 0.00000000 0.08660300 0.05000000
vn 0.08660300 -0.00000000 0.05000000
vn 0.00000000 -0.08660300 0.05000000
vn 0.08660300 -0.00000000 0.05000000
vn -0.08660300 -0.00000000 0.05000000
vn 0.08660300 -0.00000000 0.05000000
vn 0.08660300 -0.00000000 0.05000000
vn -0.08660300 -0.00000000 0.05000000
vn -0.08660300 -0.00000000 0.05000000
vn 0.08660300 -0.00000000 0.05000000
vn 0.00000000 -0.08660300 0.05000000
vn 0.00000000 0.08660300 0.05000000
vn 0.00000000 0.08660300 0.05000000
vn 0.00000000 -0.08660300 0.05000000
vn -0.08660300 -0.00000000 0.05000000
vn 0.08660300 -0.00000000 0.05000000
vn -0.08660300 -0.00000000 0.05000000
vn -0.08660300 -0.00000000 0.05000000
vn 0.00000000 0.08660300 0.05000000
vn -0.08660300 -0.00000000 0.05000000
vn 0.00000000 -0.08660300 0.05000000
vn -0.08660300 -0.00000000 0.05000000
vn 0.00000000 0.08660300 0.05000000
vn 0.00000000 -0.08660300 0.05000000
vn 0.00000000 0.08660300 0.05000000
vn 0.00000000 -0.08660300 0.05000000
vt -0.10000000 6.90000000
vt -0.00000000 6.90000000
vt -0.10000000 6.90000000
vt -0.00000000 6.90000000
vt -0.00000000 6.90000000
vt -0.00000000 3.50000000
vt -0.10000000 3.50000000
vt -0.00000000 3.40000000
vt -0.00000000 3.50000000
vt -0.00000000 0.00000000
vt -0.00000000 6.90000000
vt -0.10000000 6.90000000
vt -0.10000000 3.45000000
vt -0.00000000 3.45000000
vt -0.00000000 3.45000000
vt -0.10000000 3.45000000
vt -0.10000000 3.45000000
vt -0.00000000 3.45000000
vt -0.00000000 3.45000000
vt -0.10000000 3.45000000
vt -0.00000000 0.00000000
vt -0.10000000 0.00000000
vt -0.10000000 6.90000000
vt -0.10000000 3.50000000
vt -0.10000000 3.40000000
vt -0.10000000 3.40000000
vt -0.00000000 3.40000000
vt -0.10000000 0.00000000
vt -0.10000000 0.00000000
vt -0.10000000 0.00000000
vt -0.00000000 0.00000000
vt -0.00000000 0.00000000
f 15/15/15 26/26/26 21/21/21
f 21/21/21 26/26/26 28/28/28
f 16/16/16 22/22/22 8/8/8
f 8/8/8 22/22/22 10/10/10
f 13/13/13 6/6/6 12/12/12
f 12/12/12 6/6/6 5/5/5
f 14/14/14 11/11/11 24/24/24
f 24/24/24 11/11/11 23/23/23
f 19/19/19 2/2/2 7/7/7
f 7/7/7 2/2/2 1/1/1
f 20/20/20 9/9/9 3/3/3
f 3/3/3 9/9/9 4/4/4
f 17/17/17 30/30/30 27/27/27
f 27/27/27 30/30/30 32/32/32
f 18/18/18 25/25/25 31/31/31
f 31/31/31 25/25/25 29/29/29

