# WaveFront *.obj file (generated by Autodesk ATF)

mtllib block_asm.mtl

g Solid1

v 4.090943 10.790157 52.476278
v 4.090943 10.790157 46.476278
v 4.090943 2.790157 52.476278
v 4.090943 2.790157 46.476278
v 14.090943 10.790157 52.476278
v 14.090943 10.790157 46.476278
v 14.090943 2.790157 52.476278
v 14.090943 2.790157 46.476278
vt 0.000000 0.000000 0.000000
vt 6.000000 0.000000 0.000000
vt 6.000000 8.000000 0.000000
vt 0.000000 8.000000 0.000000
vt 0.000000 0.000000 0.000000
vt 10.000000 0.000000 0.000000
vt 10.000000 8.000000 0.000000
vt 0.000000 8.000000 0.000000
vt 0.000000 0.000000 0.000000
vt 6.000000 0.000000 0.000000
vt 6.000000 8.000000 0.000000
vt 0.000000 8.000000 0.000000
vt 0.000000 0.000000 0.000000
vt 10.000000 0.000000 0.000000
vt 10.000000 8.000000 0.000000
vt 0.000000 8.000000 0.000000
vt 3.000000 -5.000000 0.000000
vt 3.000000 5.000000 0.000000
vt -3.000000 5.000000 0.000000
vt -3.000000 -5.000000 0.000000
vt -3.000000 5.000000 0.000000
vt -3.000000 -5.000000 0.000000
vt 3.000000 -5.000000 0.000000
vt 3.000000 5.000000 0.000000
vn -1.000000 0.000000 -0.000000
vn -1.000000 0.000000 -0.000000
vn -1.000000 0.000000 -0.000000
vn -1.000000 0.000000 -0.000000
vn -0.000000 -0.000000 1.000000
vn -0.000000 -0.000000 1.000000
vn -0.000000 -0.000000 1.000000
vn -0.000000 -0.000000 1.000000
vn 1.000000 -0.000000 0.000000
vn 1.000000 -0.000000 0.000000
vn 1.000000 -0.000000 0.000000
vn 1.000000 -0.000000 0.000000
vn 0.000000 0.000000 -1.000000
vn 0.000000 0.000000 -1.000000
vn 0.000000 0.000000 -1.000000
vn 0.000000 0.000000 -1.000000
vn -0.000000 -1.000000 -0.000000
vn -0.000000 -1.000000 -0.000000
vn -0.000000 -1.000000 -0.000000
vn -0.000000 -1.000000 -0.000000
vn 0.000000 1.000000 0.000000
vn 0.000000 1.000000 0.000000
vn 0.000000 1.000000 0.000000
vn 0.000000 1.000000 0.000000
usemtl 190,188,186
f 1/1/1 2/2/2 3/4/4
f 3/4/4 2/2/2 4/3/3
f 5/5/5 1/6/6 7/8/8
f 7/8/8 1/6/6 3/7/7
f 6/9/9 5/10/10 8/12/12
f 8/12/12 5/10/10 7/11/11
f 2/13/13 6/14/14 4/16/16
f 4/16/16 6/14/14 8/15/15
f 8/18/18 7/19/19 4/17/17
f 4/17/17 7/19/19 3/20/20
f 2/22/22 1/23/23 6/21/21
f 6/21/21 1/23/23 5/24/24
g Solid1:1

v 2.090943 10.790157 52.476278
v 2.090943 10.790157 46.476278
v 2.090943 2.790157 52.476278
v 2.090943 2.790157 46.476278
v 4.090943 10.790157 52.476278
v 4.090943 10.790157 46.476278
v 4.090943 2.790157 52.476278
v 4.090943 2.790157 46.476278
vt 0.000000 0.000000 0.000000
vt 0.061757 0.000000 0.000000
vt 0.061757 0.082343 0.000000
vt 0.000000 0.082343 0.000000
vt 0.000000 0.000000 0.000000
vt 0.020586 0.000000 0.000000
vt 0.020586 0.082343 0.000000
vt 0.000000 0.082343 0.000000
vt 0.000000 0.000000 0.000000
vt 0.061757 0.000000 0.000000
vt 0.061757 0.082343 0.000000
vt 0.000000 0.082343 0.000000
vt 0.000000 0.000000 0.000000
vt 0.020586 0.000000 0.000000
vt 0.020586 0.082343 0.000000
vt 0.000000 0.082343 0.000000
vt 0.030878 -0.010293 0.000000
vt 0.030878 0.010293 0.000000
vt -0.030878 0.010293 0.000000
vt -0.030878 -0.010293 0.000000
vt -0.030878 0.010293 0.000000
vt -0.030878 -0.010293 0.000000
vt 0.030878 -0.010293 0.000000
vt 0.030878 0.010293 0.000000
vn -1.000000 0.000000 -0.000000
vn -1.000000 0.000000 -0.000000
vn -1.000000 0.000000 -0.000000
vn -1.000000 0.000000 -0.000000
vn -0.000000 -0.000000 1.000000
vn -0.000000 -0.000000 1.000000
vn -0.000000 -0.000000 1.000000
vn -0.000000 -0.000000 1.000000
vn 1.000000 -0.000000 0.000000
vn 1.000000 -0.000000 0.000000
vn 1.000000 -0.000000 0.000000
vn 1.000000 -0.000000 0.000000
vn 0.000000 0.000000 -1.000000
vn 0.000000 0.000000 -1.000000
vn 0.000000 0.000000 -1.000000
vn 0.000000 0.000000 -1.000000
vn -0.000000 -1.000000 -0.000000
vn -0.000000 -1.000000 -0.000000
vn -0.000000 -1.000000 -0.000000
vn -0.000000 -1.000000 -0.000000
vn 0.000000 1.000000 0.000000
vn 0.000000 1.000000 0.000000
vn 0.000000 1.000000 0.000000
vn 0.000000 1.000000 0.000000
usemtl 64,64,64
f 9/25/25 10/26/26 11/28/28
f 11/28/28 10/26/26 12/27/27
f 13/29/29 9/30/30 15/32/32
f 15/32/32 9/30/30 11/31/31
f 14/33/33 13/34/34 16/36/36
f 16/36/36 13/34/34 15/35/35
f 10/37/37 14/38/38 12/40/40
f 12/40/40 14/38/38 16/39/39
f 16/42/42 15/43/43 12/41/41
f 12/41/41 15/43/43 11/44/44
f 10/46/46 9/47/47 14/45/45
f 14/45/45 9/47/47 13/48/48
g Solid1:2

v 2.090943 2.790157 52.476278
v 2.090943 2.790157 56.476278
v 2.090943 10.790157 52.476278
v 2.090943 10.790157 56.476278
v 4.090943 2.790157 52.476278
v 4.090943 2.790157 56.476278
v 4.090943 10.790157 52.476278
v 4.090943 10.790157 56.476278
vt 0.000000 0.000000 0.000000
vt 4.000000 0.000000 0.000000
vt 4.000000 8.000000 0.000000
vt 0.000000 8.000000 0.000000
vt 0.000000 0.000000 0.000000
vt 2.000000 0.000000 0.000000
vt 2.000000 8.000000 0.000000
vt 0.000000 8.000000 0.000000
vt 0.000000 0.000000 0.000000
vt 4.000000 0.000000 0.000000
vt 4.000000 8.000000 0.000000
vt 0.000000 8.000000 0.000000
vt 0.000000 0.000000 0.000000
vt 2.000000 0.000000 0.000000
vt 2.000000 8.000000 0.000000
vt 0.000000 8.000000 0.000000
vt 2.000000 -1.000000 0.000000
vt 2.000000 1.000000 0.000000
vt -2.000000 1.000000 0.000000
vt -2.000000 -1.000000 0.000000
vt -2.000000 1.000000 0.000000
vt -2.000000 -1.000000 0.000000
vt 2.000000 -1.000000 0.000000
vt 2.000000 1.000000 0.000000
vn -1.000000 0.000000 0.000000
vn -1.000000 0.000000 0.000000
vn -1.000000 0.000000 0.000000
vn -1.000000 0.000000 0.000000
vn 0.000000 0.000000 -1.000000
vn 0.000000 0.000000 -1.000000
vn 0.000000 0.000000 -1.000000
vn 0.000000 0.000000 -1.000000
vn 1.000000 0.000000 0.000000
vn 1.000000 0.000000 0.000000
vn 1.000000 0.000000 0.000000
vn 1.000000 0.000000 0.000000
vn 0.000000 0.000000 1.000000
vn 0.000000 0.000000 1.000000
vn 0.000000 0.000000 1.000000
vn 0.000000 0.000000 1.000000
vn 0.000000 1.000000 0.000000
vn 0.000000 1.000000 0.000000
vn 0.000000 1.000000 0.000000
vn 0.000000 1.000000 0.000000
vn 0.000000 -1.000000 0.000000
vn 0.000000 -1.000000 0.000000
vn 0.000000 -1.000000 0.000000
vn 0.000000 -1.000000 0.000000
usemtl 236,241,239
f 17/49/49 18/50/50 19/52/52
f 19/52/52 18/50/50 20/51/51
f 21/53/53 17/54/54 23/56/56
f 23/56/56 17/54/54 19/55/55
f 22/57/57 21/58/58 24/60/60
f 24/60/60 21/58/58 23/59/59
f 18/61/61 22/62/62 20/64/64
f 20/64/64 22/62/62 24/63/63
f 24/66/66 23/67/67 20/65/65
f 20/65/65 23/67/67 19/68/68
f 18/70/70 17/71/71 22/69/69
f 22/69/69 17/71/71 21/72/72
g Solid1:3

v 4.090943 2.790157 52.476278
v 4.090943 2.790157 56.476278
v 4.090943 10.790157 52.476278
v 4.090943 10.790157 56.476278
v 14.090943 2.790157 52.476278
v 14.090943 2.790157 56.476278
v 14.090943 10.790157 52.476278
v 14.090943 10.790157 56.476278
vt 0.000000 0.000000 0.000000
vt 4.000000 0.000000 0.000000
vt 4.000000 8.000000 0.000000
vt 0.000000 8.000000 0.000000
vt 0.000000 0.000000 0.000000
vt 10.000000 0.000000 0.000000
vt 10.000000 8.000000 0.000000
vt 0.000000 8.000000 0.000000
vt 0.000000 0.000000 0.000000
vt 4.000000 0.000000 0.000000
vt 4.000000 8.000000 0.000000
vt 0.000000 8.000000 0.000000
vt 0.000000 0.000000 0.000000
vt 10.000000 0.000000 0.000000
vt 10.000000 8.000000 0.000000
vt 0.000000 8.000000 0.000000
vt 2.000000 -5.000000 0.000000
vt 2.000000 5.000000 0.000000
vt -2.000000 5.000000 0.000000
vt -2.000000 -5.000000 0.000000
vt -2.000000 5.000000 0.000000
vt -2.000000 -5.000000 0.000000
vt 2.000000 -5.000000 0.000000
vt 2.000000 5.000000 0.000000
vn -1.000000 0.000000 0.000000
vn -1.000000 0.000000 0.000000
vn -1.000000 0.000000 0.000000
vn -1.000000 0.000000 0.000000
vn 0.000000 0.000000 -1.000000
vn 0.000000 0.000000 -1.000000
vn 0.000000 0.000000 -1.000000
vn 0.000000 0.000000 -1.000000
vn 1.000000 0.000000 0.000000
vn 1.000000 0.000000 0.000000
vn 1.000000 0.000000 0.000000
vn 1.000000 0.000000 0.000000
vn 0.000000 0.000000 1.000000
vn 0.000000 0.000000 1.000000
vn 0.000000 0.000000 1.000000
vn 0.000000 0.000000 1.000000
vn 0.000000 1.000000 0.000000
vn 0.000000 1.000000 0.000000
vn 0.000000 1.000000 0.000000
vn 0.000000 1.000000 0.000000
vn 0.000000 -1.000000 0.000000
vn 0.000000 -1.000000 0.000000
vn 0.000000 -1.000000 0.000000
vn 0.000000 -1.000000 0.000000
usemtl 191,191,191
f 25/73/73 26/74/74 27/76/76
f 27/76/76 26/74/74 28/75/75
f 29/77/77 25/78/78 31/80/80
f 31/80/80 25/78/78 27/79/79
f 30/81/81 29/82/82 32/84/84
f 32/84/84 29/82/82 31/83/83
f 26/85/85 30/86/86 28/88/88
f 28/88/88 30/86/86 32/87/87
f 32/90/90 31/91/91 28/89/89
f 28/89/89 31/91/91 27/92/92
f 26/94/94 25/95/95 30/93/93
f 30/93/93 25/95/95 29/96/96
# 32 vertices
# 96 texture params
# 96 normals
# 48 facets

# 4 groups
