# https://github.com/mikedh/trimesh
v 30.70051664 34.87267417 30.70051664
v 30.70051664 34.81804490 31.39018491
v 31.39018491 34.81804490 30.70051664
v 30.70051664 34.87267417 -30.70051664
v -30.70051664 34.87267417 30.70051664
v 30.70051664 34.62684864 31.88183185
v 31.39018491 34.59953606 31.85451722
v 31.39018491 34.75658852 31.39018491
v -30.70051664 34.81804490 31.39018491
v 31.85451722 34.59953606 31.39018491
v 31.88183185 34.62684864 30.70051664
v 31.39018491 34.81804490 -30.70051664
v 30.70051664 34.81804490 -31.39018491
v -30.70051664 34.87267417 -30.70051664
v -31.39018491 34.81804490 30.70051664
v 30.70051664 34.29908744 32.23008057
v -30.70051664 34.62684864 31.88183185
v 31.39018491 34.26494569 32.19593883
v 31.79306290 34.54491091 31.79306290
v -31.39018491 34.75658852 31.39018491
v -31.39018491 34.59953606 31.85451722
v 32.19593883 34.26494569 31.39018491
v 32.23008057 34.29908744 30.70051664
v 31.88183185 34.62684864 -30.70051664
v 31.85451722 34.59953606 -31.39018491
v 31.39018491 34.75658852 -31.39018491
v 31.39018491 34.59953606 -31.85451722
v 30.70051664 34.62684864 -31.88183185
v -30.70051664 34.81804490 -31.39018491
v -31.39018491 34.81804490 -30.70051664
v -31.88183185 34.62684864 30.70051664
v -31.85451722 34.59953606 31.39018491
v 30.70051664 33.95766583 32.57832929
v -30.70051664 34.29908744 32.23008057
v 31.39018491 33.92352408 32.54418755
v 31.79306290 33.86206976 32.48273116
v 32.02522802 34.09423488 32.02522802
v 32.48273116 33.86206976 31.79306290
v 32.54418755 33.92352408 31.39018491
v -31.79306290 34.54491091 31.79306290
v -31.39018491 34.26494569 32.19593883
v 32.57832929 33.95766583 30.70051664
v 32.23008057 34.29908744 -30.70051664
v 32.19593883 34.26494569 -31.39018491
v 31.79306290 34.54491091 -31.79306290
v 31.39018491 34.26494569 -32.19593883
v 30.70051664 34.29908744 -32.23008057
v -30.70051664 34.62684864 -31.88183185
v -31.39018491 34.59953606 -31.85451722
v -31.39018491 34.75658852 -31.39018491
v -31.85451722 34.59953606 -31.39018491
v -31.88183185 34.62684864 -30.70051664
v -32.23008057 34.29908744 30.70051664
v -32.19593883 34.26494569 31.39018491
v 30.70051664 32.57832929 33.95766583
v -30.70051664 33.95766583 32.57832929
v 31.39018491 32.54418755 33.92352408
v 31.79306290 32.48273116 33.86206976
v 32.25739315 33.63673174 32.25739315
v 33.86206976 32.48273116 31.79306290
v 33.92352408 32.54418755 31.39018491
v -32.54418755 33.92352408 31.39018491
v -32.48273116 33.86206976 31.79306290
v -32.02522802 34.09423488 32.02522802
v -31.79306290 33.86206976 32.48273116
v -31.39018491 33.92352408 32.54418755
v 32.57832929 33.95766583 -30.70051664
v 33.95766583 32.57832929 30.70051664
v 32.54418755 33.92352408 -31.39018491
v 32.48273116 33.86206976 -31.79306290
v 32.02522802 34.09423488 -32.02522802
v 31.79306290 33.86206976 -32.48273116
v 31.39018491 33.92352408 -32.54418755
v 30.70051664 33.95766583 -32.57832929
v -30.70051664 34.29908744 -32.23008057
v -31.39018491 34.26494569 -32.19593883
v -31.79306290 34.54491091 -31.79306290
v -32.19593883 34.26494569 -31.39018491
v -32.23008057 34.29908744 -30.70051664
v -32.57832929 33.95766583 30.70051664
v 30.70051664 32.23008057 34.29908744
v -30.70051664 32.57832929 33.95766583
v 31.39018491 32.19593883 34.26494569
v 31.79306290 31.79306290 34.54491091
v 32.02522802 32.02522802 34.09423488
v 32.25739315 32.25739315 33.63673174
v 33.63673174 32.25739315 32.25739315
v 34.09423488 32.02522802 32.02522802
v 34.54491091 31.79306290 31.79306290
v 34.26494569 32.19593883 31.39018491
v -33.92352408 32.54418755 31.39018491
v -33.86206976 32.48273116 31.79306290
v -32.25739315 33.63673174 32.25739315
v -31.79306290 32.48273116 33.86206976
v -31.39018491 32.54418755 33.92352408
v 33.95766583 32.57832929 -30.70051664
v 34.29908744 32.23008057 30.70051664
v 33.92352408 32.54418755 -31.39018491
v 33.86206976 32.48273116 -31.79306290
v 32.25739315 33.63673174 -32.25739315
v 31.79306290 32.48273116 -33.86206976
v 31.39018491 32.54418755 -33.92352408
v 30.70051664 32.57832929 -33.95766583
v -30.70051664 33.95766583 -32.57832929
v -31.39018491 33.92352408 -32.54418755
v -31.79306290 33.86206976 -32.48273116
v -32.02522802 34.09423488 -32.02522802
v -32.48273116 33.86206976 -31.79306290
v -32.54418755 33.92352408 -31.39018491
v -32.57832929 33.95766583 -30.70051664
v -33.95766583 32.57832929 30.70051664
v 30.70051664 31.88183185 34.62684864
v 31.39018491 31.85451722 34.59953606
v -30.70051664 32.23008057 34.29908744
v 31.85451722 31.39018491 34.59953606
v 32.19593883 31.39018491 34.26494569
v 32.54418755 31.39018491 33.92352408
v 32.48273116 31.79306290 33.86206976
v 31.39018491 31.39018491 34.75658852
v 33.86206976 31.79306290 32.48273116
v 34.59953606 31.39018491 31.85451722
v 34.75658852 31.39018491 31.39018491
v 34.59953606 31.85451722 31.39018491
v 33.92352408 31.39018491 32.54418755
v 34.26494569 31.39018491 32.19593883
v -34.26494569 32.19593883 31.39018491
v -34.54491091 31.79306290 31.79306290
v -34.09423488 32.02522802 32.02522802
v -33.63673174 32.25739315 32.25739315
v -32.25739315 32.25739315 33.63673174
v -32.02522802 32.02522802 34.09423488
v -31.79306290 31.79306290 34.54491091
v -31.39018491 32.19593883 34.26494569
v 34.29908744 32.23008057 -30.70051664
v 34.62684864 31.88183185 30.70051664
v 34.26494569 32.19593883 -31.39018491
v 34.54491091 31.79306290 -31.79306290
v 34.09423488 32.02522802 -32.02522802
v 33.63673174 32.25739315 -32.25739315
v 32.25739315 32.25739315 -33.63673174
v 32.02522802 32.02522802 -34.09423488
v 31.79306290 31.79306290 -34.54491091
v 31.39018491 32.19593883 -34.26494569
v 30.70051664 32.23008057 -34.29908744
v -30.70051664 32.57832929 -33.95766583
v -31.39018491 32.54418755 -33.92352408
v -31.79306290 32.48273116 -33.86206976
v -32.25739315 33.63673174 -32.25739315
v -33.86206976 32.48273116 -31.79306290
v -33.92352408 32.54418755 -31.39018491
v -33.95766583 32.57832929 -30.70051664
v -34.29908744 32.23008057 30.70051664
v 30.70051664 31.39018491 34.81804490
v -30.70051664 31.88183185 34.62684864
v -31.39018491 31.85451722 34.59953606
v 31.39018491 30.70051664 34.81804490
v 31.88183185 30.70051664 34.62684864
v 32.23008057 30.70051664 34.29908744
v 32.57832929 30.70051664 33.95766583
v 34.29908744 30.70051664 32.23008057
v 34.62684864 30.70051664 31.88183185
v 34.81804490 30.70051664 31.39018491
v 34.81804490 31.39018491 30.70051664
v 33.95766583 30.70051664 32.57832929
v -34.59953606 31.85451722 31.39018491
v -34.75658852 31.39018491 31.39018491
v -34.59953606 31.39018491 31.85451722
v -34.26494569 31.39018491 32.19593883
v -33.92352408 31.39018491 32.54418755
v -33.86206976 31.79306290 32.48273116
v -32.48273116 31.79306290 33.86206976
v -32.54418755 31.39018491 33.92352408
v -32.19593883 31.39018491 34.26494569
v -31.85451722 31.39018491 34.59953606
v -31.39018491 31.39018491 34.75658852
v 34.62684864 31.88183185 -30.70051664
v 34.59953606 31.85451722 -31.39018491
v 34.75658852 31.39018491 -31.39018491
v 34.59953606 31.39018491 -31.85451722
v 34.26494569 31.39018491 -32.19593883
v 33.92352408 31.39018491 -32.54418755
v 33.86206976 31.79306290 -32.48273116
v 32.48273116 31.79306290 -33.86206976
v 32.54418755 31.39018491 -33.92352408
v 32.19593883 31.39018491 -34.26494569
v 31.85451722 31.39018491 -34.59953606
v 31.39018491 31.39018491 -34.75658852
v 31.39018491 31.85451722 -34.59953606
v 30.70051664 31.88183185 -34.62684864
v -30.70051664 32.23008057 -34.29908744
v -31.39018491 32.19593883 -34.26494569
v -31.79306290 31.79306290 -34.54491091
v -32.02522802 32.02522802 -34.09423488
v -32.25739315 32.25739315 -33.63673174
v -33.63673174 32.25739315 -32.25739315
v -34.09423488 32.02522802 -32.02522802
v -34.54491091 31.79306290 -31.79306290
v -34.26494569 32.19593883 -31.39018491
v -34.29908744 32.23008057 -30.70051664
v -34.62684864 31.88183185 30.70051664
v 30.70051664 30.70051664 34.87267417
v -30.70051664 31.39018491 34.81804490
v 31.39018491 -30.70051664 34.81804490
v 31.88183185 -30.70051664 34.62684864
v 32.23008057 -30.70051664 34.29908744
v 32.57832929 -30.70051664 33.95766583
v 34.29908744 -30.70051664 32.23008057
v 34.62684864 -30.70051664 31.88183185
v 34.81804490 -30.70051664 31.39018491
v 34.87267417 30.70051664 30.70051664
v 34.81804490 31.39018491 -30.70051664
v 33.95766583 -30.70051664 32.57832929
v -34.81804490 31.39018491 30.70051664
v -34.81804490 30.70051664 31.39018491
v -34.62684864 30.70051664 31.88183185
v -34.29908744 30.70051664 32.23008057
v -33.95766583 30.70051664 32.57832929
v -32.57832929 30.70051664 33.95766583
v -32.23008057 30.70051664 34.29908744
v -31.88183185 30.70051664 34.62684864
v -31.39018491 30.70051664 34.81804490
v 34.81804490 30.70051664 -31.39018491
v 34.29908744 30.70051664 -32.23008057
v 34.62684864 30.70051664 -31.88183185
v 33.95766583 30.70051664 -32.57832929
v 32.57832929 30.70051664 -33.95766583
v 32.23008057 30.70051664 -34.29908744
v 31.88183185 30.70051664 -34.62684864
v 31.39018491 30.70051664 -34.81804490
v 30.70051664 31.39018491 -34.81804490
v -30.70051664 31.88183185 -34.62684864
v -31.39018491 31.85451722 -34.59953606
v -31.85451722 31.39018491 -34.59953606
v -32.19593883 31.39018491 -34.26494569
v -32.54418755 31.39018491 -33.92352408
v -32.48273116 31.79306290 -33.86206976
v -31.39018491 31.39018491 -34.75658852
v -33.86206976 31.79306290 -32.48273116
v -34.59953606 31.39018491 -31.85451722
v -34.75658852 31.39018491 -31.39018491
v -34.59953606 31.85451722 -31.39018491
v -33.92352408 31.39018491 -32.54418755
v -34.26494569 31.39018491 -32.19593883
v -34.62684864 31.88183185 -30.70051664
v 30.70051664 -30.70051664 34.87267417
v -30.70051664 30.70051664 34.87267417
v 31.39018491 -31.39018491 34.75658852
v 31.85451722 -31.39018491 34.59953606
v 30.70051664 -31.39018491 34.81804490
v 32.19593883 -31.39018491 34.26494569
v 32.54418755 -31.39018491 33.92352408
v 34.26494569 -31.39018491 32.19593883
v 34.59953606 -31.39018491 31.85451722
v 34.75658852 -31.39018491 31.39018491
v 34.81804490 -31.39018491 30.70051664
v 34.87267417 -30.70051664 30.70051664
v 34.87267417 30.70051664 -30.70051664
v 33.92352408 -31.39018491 32.54418755
v -34.81804490 31.39018491 -30.70051664
v -34.87267417 30.70051664 30.70051664
v -34.81804490 -30.70051664 31.39018491
v -34.62684864 -30.70051664 31.88183185
v -34.29908744 -30.70051664 32.23008057
v -33.95766583 -30.70051664 32.57832929
v -32.57832929 -30.70051664 33.95766583
v -32.23008057 -30.70051664 34.29908744
v -31.88183185 -30.70051664 34.62684864
v -31.39018491 -30.70051664 34.81804490
v 34.81804490 -30.70051664 -31.39018491
v 34.29908744 -30.70051664 -32.23008057
v 34.62684864 -30.70051664 -31.88183185
v 33.95766583 -30.70051664 -32.57832929
v 32.57832929 -30.70051664 -33.95766583
v 32.23008057 -30.70051664 -34.29908744
v 31.88183185 -30.70051664 -34.62684864
v 31.39018491 -30.70051664 -34.81804490
v 30.70051664 30.70051664 -34.87267417
v -30.70051664 31.39018491 -34.81804490
v -31.39018491 30.70051664 -34.81804490
v -31.88183185 30.70051664 -34.62684864
v -32.23008057 30.70051664 -34.29908744
v -32.57832929 30.70051664 -33.95766583
v -34.29908744 30.70051664 -32.23008057
v -34.62684864 30.70051664 -31.88183185
v -34.81804490 30.70051664 -31.39018491
v -33.95766583 30.70051664 -32.57832929
v -30.70051664 -30.70051664 34.87267417
v 31.39018491 -31.85451722 34.59953606
v 31.79306290 -31.79306290 34.54491091
v 30.70051664 -31.88183185 34.62684864
v -30.70051664 -31.39018491 34.81804490
v 32.48273116 -31.79306290 33.86206976
v 34.54491091 -31.79306290 31.79306290
v 34.59953606 -31.85451722 31.39018491
v 34.62684864 -31.88183185 30.70051664
v 34.81804490 -31.39018491 -30.70051664
v 34.87267417 -30.70051664 -30.70051664
v 33.86206976 -31.79306290 32.48273116
v -34.87267417 30.70051664 -30.70051664
v -34.87267417 -30.70051664 30.70051664
v -34.81804490 -31.39018491 30.70051664
v -34.75658852 -31.39018491 31.39018491
v -34.59953606 -31.39018491 31.85451722
v -34.26494569 -31.39018491 32.19593883
v -33.92352408 -31.39018491 32.54418755
v -32.54418755 -31.39018491 33.92352408
v -32.19593883 -31.39018491 34.26494569
v -31.85451722 -31.39018491 34.59953606
v -31.39018491 -31.39018491 34.75658852
v 34.75658852 -31.39018491 -31.39018491
v 34.59953606 -31.39018491 -31.85451722
v 34.26494569 -31.39018491 -32.19593883
v 33.92352408 -31.39018491 -32.54418755
v 32.54418755 -31.39018491 -33.92352408
v 32.19593883 -31.39018491 -34.26494569
v 31.85451722 -31.39018491 -34.59953606
v 31.39018491 -31.39018491 -34.75658852
v 30.70051664 -31.39018491 -34.81804490
v 30.70051664 -30.70051664 -34.87267417
v -30.70051664 30.70051664 -34.87267417
v -31.39018491 -30.70051664 -34.81804490
v -31.88183185 -30.70051664 -34.62684864
v -32.23008057 -30.70051664 -34.29908744
v -32.57832929 -30.70051664 -33.95766583
v -34.29908744 -30.70051664 -32.23008057
v -34.62684864 -30.70051664 -31.88183185
v -34.81804490 -30.70051664 -31.39018491
v -33.95766583 -30.70051664 -32.57832929
v 31.39018491 -32.19593883 34.26494569
v 30.70051664 -32.23008057 34.29908744
v 31.79306290 -32.48273116 33.86206976
v 32.02522802 -32.02522802 34.09423488
v 31.39018491 -32.54418755 33.92352408
v -30.70051664 -31.88183185 34.62684864
v -31.39018491 -31.85451722 34.59953606
v 34.09423488 -32.02522802 32.02522802
v 33.86206976 -32.48273116 31.79306290
v 33.92352408 -32.54418755 31.39018491
v 34.26494569 -32.19593883 31.39018491
v 34.29908744 -32.23008057 30.70051664
v 34.62684864 -31.88183185 -30.70051664
v 34.59953606 -31.85451722 -31.39018491
v -34.87267417 -30.70051664 -30.70051664
v -34.81804490 -31.39018491 -30.70051664
v -34.62684864 -31.88183185 30.70051664
v -34.59953606 -31.85451722 31.39018491
v -34.54491091 -31.79306290 31.79306290
v -33.86206976 -31.79306290 32.48273116
v -32.48273116 -31.79306290 33.86206976
v -31.79306290 -31.79306290 34.54491091
v 34.54491091 -31.79306290 -31.79306290
v 33.86206976 -31.79306290 -32.48273116
v 32.48273116 -31.79306290 -33.86206976
v 31.79306290 -31.79306290 -34.54491091
v 31.39018491 -31.85451722 -34.59953606
v 30.70051664 -31.88183185 -34.62684864
v -30.70051664 -31.39018491 -34.81804490
v -30.70051664 -30.70051664 -34.87267417
v -31.39018491 -31.39018491 -34.75658852
v -31.85451722 -31.39018491 -34.59953606
v -32.19593883 -31.39018491 -34.26494569
v -32.54418755 -31.39018491 -33.92352408
v -34.26494569 -31.39018491 -32.19593883
v -34.59953606 -31.39018491 -31.85451722
v -34.75658852 -31.39018491 -31.39018491
v -33.92352408 -31.39018491 -32.54418755
v 30.70051664 -32.57832929 33.95766583
v -30.70051664 -32.23008057 34.29908744
v 31.79306290 -33.86206976 32.48273116
v 32.25739315 -32.25739315 33.63673174
v 31.39018491 -33.92352408 32.54418755
v -31.39018491 -32.19593883 34.26494569
v 33.63673174 -32.25739315 32.25739315
v 32.48273116 -33.86206976 31.79306290
v 32.54418755 -33.92352408 31.39018491
v 33.95766583 -32.57832929 30.70051664
v 34.29908744 -32.23008057 -30.70051664
v 34.26494569 -32.19593883 -31.39018491
v -34.59953606 -31.85451722 -31.39018491
v -34.62684864 -31.88183185 -30.70051664
v -34.29908744 -32.23008057 30.70051664
v -34.26494569 -32.19593883 31.39018491
v -33.92352408 -32.54418755 31.39018491
v -33.86206976 -32.48273116 31.79306290
v -34.09423488 -32.02522802 32.02522802
v -32.02522802 -32.02522802 34.09423488
v -31.79306290 -32.48273116 33.86206976
v -31.39018491 -32.54418755 33.92352408
v 33.92352408 -32.54418755 -31.39018491
v 33.86206976 -32.48273116 -31.79306290
v 34.09423488 -32.02522802 -32.02522802
v 32.02522802 -32.02522802 -34.09423488
v 31.79306290 -32.48273116 -33.86206976
v 31.39018491 -32.54418755 -33.92352408
v 31.39018491 -32.19593883 -34.26494569
v 30.70051664 -32.23008057 -34.29908744
v -30.70051664 -31.88183185 -34.62684864
v -31.39018491 -31.85451722 -34.59953606
v -31.79306290 -31.79306290 -34.54491091
v -32.48273116 -31.79306290 -33.86206976
v -34.54491091 -31.79306290 -31.79306290
v -33.86206976 -31.79306290 -32.48273116
v 30.70051664 -33.95766583 32.57832929
v -30.70051664 -32.57832929 33.95766583
v 31.79306290 -34.54491091 31.79306290
v 32.02522802 -34.09423488 32.02522802
v 32.25739315 -33.63673174 32.25739315
v 31.39018491 -34.26494569 32.19593883
v 32.57832929 -33.95766583 30.70051664
v 32.19593883 -34.26494569 31.39018491
v 33.95766583 -32.57832929 -30.70051664
v -34.26494569 -32.19593883 -31.39018491
v -34.29908744 -32.23008057 -30.70051664
v -33.95766583 -32.57832929 30.70051664
v -32.54418755 -33.92352408 31.39018491
v -32.48273116 -33.86206976 31.79306290
v -33.63673174 -32.25739315 32.25739315
v -32.25739315 -32.25739315 33.63673174
v -31.79306290 -33.86206976 32.48273116
v -31.39018491 -33.92352408 32.54418755
v 32.54418755 -33.92352408 -31.39018491
v 32.48273116 -33.86206976 -31.79306290
v 33.63673174 -32.25739315 -32.25739315
v 32.25739315 -32.25739315 -33.63673174
v 31.79306290 -33.86206976 -32.48273116
v 31.39018491 -33.92352408 -32.54418755
v 30.70051664 -32.57832929 -33.95766583
v -30.70051664 -32.23008057 -34.29908744
v -31.39018491 -32.19593883 -34.26494569
v -31.79306290 -32.48273116 -33.86206976
v -32.02522802 -32.02522802 -34.09423488
v -31.39018491 -32.54418755 -33.92352408
v -34.09423488 -32.02522802 -32.02522802
v -33.86206976 -32.48273116 -31.79306290
v -33.92352408 -32.54418755 -31.39018491
v 30.70051664 -34.29908744 32.23008057
v -30.70051664 -33.95766583 32.57832929
v 31.85451722 -34.59953606 31.39018491
v 31.39018491 -34.59953606 31.85451722
v 31.39018491 -34.75658852 31.39018491
v 32.23008057 -34.29908744 30.70051664
v 32.57832929 -33.95766583 -30.70051664
v -33.95766583 -32.57832929 -30.70051664
v -32.57832929 -33.95766583 30.70051664
v -32.19593883 -34.26494569 31.39018491
v -31.79306290 -34.54491091 31.79306290
v -32.02522802 -34.09423488 32.02522802
v -32.25739315 -33.63673174 32.25739315
v -31.39018491 -34.26494569 32.19593883
v 32.19593883 -34.26494569 -31.39018491
v 31.79306290 -34.54491091 -31.79306290
v 32.02522802 -34.09423488 -32.02522802
v 32.25739315 -33.63673174 -32.25739315
v 31.39018491 -34.26494569 -32.19593883
v 30.70051664 -33.95766583 -32.57832929
v -30.70051664 -32.57832929 -33.95766583
v -31.79306290 -33.86206976 -32.48273116
v -32.25739315 -32.25739315 -33.63673174
v -31.39018491 -33.92352408 -32.54418755
v -33.63673174 -32.25739315 -32.25739315
v -32.48273116 -33.86206976 -31.79306290
v -32.54418755 -33.92352408 -31.39018491
v 30.70051664 -34.62684864 31.88183185
v -30.70051664 -34.29908744 32.23008057
v 31.39018491 -34.81804490 30.70051664
v 31.88183185 -34.62684864 30.70051664
v 30.70051664 -34.81804490 31.39018491
v 32.23008057 -34.29908744 -30.70051664
v -32.57832929 -33.95766583 -30.70051664
v -32.23008057 -34.29908744 30.70051664
v -31.85451722 -34.59953606 31.39018491
v -31.39018491 -34.75658852 31.39018491
v -31.39018491 -34.59953606 31.85451722
v 31.85451722 -34.59953606 -31.39018491
v 31.39018491 -34.75658852 -31.39018491
v 31.39018491 -34.59953606 -31.85451722
v 30.70051664 -34.29908744 -32.23008057
v -30.70051664 -33.95766583 -32.57832929
v -31.79306290 -34.54491091 -31.79306290
v -32.02522802 -34.09423488 -32.02522802
v -32.25739315 -33.63673174 -32.25739315
v -31.39018491 -34.26494569 -32.19593883
v -32.19593883 -34.26494569 -31.39018491
v -30.70051664 -34.62684864 31.88183185
v 31.39018491 -34.81804490 -30.70051664
v 30.70051664 -34.87267417 30.70051664
v 31.88183185 -34.62684864 -30.70051664
v -30.70051664 -34.81804490 31.39018491
v -32.23008057 -34.29908744 -30.70051664
v -31.88183185 -34.62684864 30.70051664
v -31.39018491 -34.81804490 30.70051664
v 30.70051664 -34.81804490 -31.39018491
v 30.70051664 -34.62684864 -31.88183185
v -30.70051664 -34.29908744 -32.23008057
v -31.85451722 -34.59953606 -31.39018491
v -31.39018491 -34.59953606 -31.85451722
v -31.39018491 -34.75658852 -31.39018491
v 30.70051664 -34.87267417 -30.70051664
v -30.70051664 -34.87267417 30.70051664
v -31.88183185 -34.62684864 -30.70051664
v -31.39018491 -34.81804490 -30.70051664
v -30.70051664 -34.81804490 -31.39018491
v -30.70051664 -34.62684864 -31.88183185
v -30.70051664 -34.87267417 -30.70051664
f 1 2 3
f 1 3 12
f 1 12 4
f 1 4 14
f 1 14 5
f 1 5 9
f 1 9 2
f 2 6 7
f 2 7 8
f 2 8 3
f 2 9 17
f 2 17 6
f 3 10 11
f 3 11 24
f 3 24 12
f 3 8 10
f 4 12 13
f 4 13 29
f 4 29 14
f 5 14 30
f 5 30 15
f 5 15 9
f 6 16 7
f 6 17 34
f 6 34 16
f 7 18 19
f 7 19 8
f 7 16 18
f 8 19 10
f 9 15 20
f 9 20 21
f 9 21 17
f 10 19 22
f 10 22 23
f 10 23 11
f 11 23 43
f 11 43 24
f 12 24 25
f 12 25 26
f 12 26 13
f 13 26 27
f 13 27 28
f 13 28 48
f 13 48 29
f 14 29 30
f 15 30 52
f 15 52 31
f 15 31 32
f 15 32 20
f 16 33 35
f 16 35 18
f 16 34 56
f 16 56 33
f 17 21 34
f 18 35 19
f 19 36 37
f 19 37 38
f 19 38 39
f 19 39 22
f 19 35 36
f 20 32 40
f 20 40 21
f 21 40 41
f 21 41 34
f 22 39 42
f 22 42 23
f 23 42 67
f 23 67 43
f 24 43 25
f 25 43 44
f 25 44 45
f 25 45 26
f 26 45 27
f 27 45 46
f 27 46 47
f 27 47 28
f 28 47 75
f 28 75 48
f 29 48 49
f 29 49 50
f 29 50 30
f 30 50 51
f 30 51 52
f 31 52 79
f 31 79 53
f 31 53 32
f 32 53 54
f 32 54 40
f 33 55 57
f 33 57 35
f 33 56 82
f 33 82 55
f 34 41 66
f 34 66 56
f 35 57 58
f 35 58 36
f 36 58 85
f 36 85 86
f 36 86 59
f 36 59 37
f 37 59 87
f 37 87 88
f 37 88 60
f 37 60 38
f 38 60 61
f 38 61 39
f 39 61 68
f 39 68 42
f 40 54 62
f 40 62 63
f 40 63 64
f 40 64 65
f 40 65 66
f 40 66 41
f 42 68 96
f 42 96 67
f 43 67 69
f 43 69 44
f 44 69 45
f 45 69 70
f 45 70 71
f 45 71 72
f 45 72 73
f 45 73 46
f 46 73 74
f 46 74 47
f 47 74 104
f 47 104 75
f 48 75 49
f 49 76 77
f 49 77 50
f 49 75 76
f 50 77 51
f 51 77 78
f 51 78 79
f 51 79 52
f 53 79 110
f 53 110 80
f 53 80 62
f 53 62 54
f 55 81 83
f 55 83 57
f 55 82 114
f 55 114 81
f 56 66 95
f 56 95 82
f 57 83 84
f 57 84 58
f 58 84 85
f 59 86 87
f 60 88 89
f 60 89 61
f 61 89 90
f 61 90 97
f 61 97 68
f 62 80 111
f 62 111 91
f 62 91 92
f 62 92 63
f 63 92 128
f 63 128 129
f 63 129 93
f 63 93 64
f 64 93 130
f 64 130 131
f 64 131 94
f 64 94 65
f 65 94 95
f 65 95 66
f 67 96 98
f 67 98 69
f 68 97 134
f 68 134 96
f 69 98 99
f 69 99 70
f 70 99 138
f 70 138 139
f 70 139 100
f 70 100 71
f 71 100 140
f 71 140 141
f 71 141 101
f 71 101 72
f 72 101 102
f 72 102 73
f 73 102 103
f 73 103 74
f 74 103 145
f 74 145 104
f 75 104 105
f 75 105 76
f 76 105 77
f 77 106 107
f 77 107 108
f 77 108 109
f 77 109 78
f 77 105 106
f 78 109 110
f 78 110 79
f 80 110 151
f 80 151 111
f 81 112 113
f 81 113 83
f 81 114 154
f 81 154 112
f 82 95 133
f 82 133 114
f 83 113 84
f 84 115 116
f 84 116 117
f 84 117 118
f 84 118 85
f 84 113 119
f 84 119 115
f 85 118 120
f 85 120 88
f 85 88 87
f 85 87 86
f 88 120 89
f 89 121 122
f 89 122 123
f 89 123 90
f 89 120 124
f 89 124 125
f 89 125 121
f 90 123 97
f 91 111 152
f 91 152 126
f 91 126 127
f 91 127 92
f 92 127 128
f 93 129 130
f 94 131 132
f 94 132 95
f 95 132 133
f 96 134 136
f 96 136 98
f 97 123 135
f 97 135 176
f 97 176 134
f 98 136 137
f 98 137 99
f 99 137 138
f 100 139 140
f 101 141 142
f 101 142 102
f 102 142 143
f 102 143 144
f 102 144 103
f 103 144 190
f 103 190 145
f 104 145 146
f 104 146 105
f 105 146 147
f 105 147 106
f 106 147 193
f 106 193 194
f 106 194 148
f 106 148 107
f 107 148 195
f 107 195 196
f 107 196 149
f 107 149 108
f 108 149 150
f 108 150 109
f 109 150 151
f 109 151 110
f 111 151 199
f 111 199 152
f 112 153 113
f 112 154 202
f 112 202 153
f 113 153 119
f 114 133 155
f 114 155 154
f 115 119 156
f 115 156 157
f 115 157 158
f 115 158 116
f 116 158 159
f 116 159 117
f 117 159 164
f 117 164 124
f 117 124 120
f 117 120 118
f 119 153 156
f 121 125 160
f 121 160 161
f 121 161 162
f 121 162 122
f 122 162 163
f 122 163 123
f 123 163 135
f 124 164 160
f 124 160 125
f 126 152 165
f 126 165 127
f 127 165 166
f 127 166 167
f 127 167 168
f 127 168 169
f 127 169 170
f 127 170 128
f 128 170 171
f 128 171 131
f 128 131 130
f 128 130 129
f 131 171 132
f 132 171 172
f 132 172 173
f 132 173 174
f 132 174 175
f 132 175 155
f 132 155 133
f 134 176 177
f 134 177 136
f 135 163 211
f 135 211 176
f 136 177 137
f 137 177 178
f 137 178 179
f 137 179 180
f 137 180 181
f 137 181 182
f 137 182 138
f 138 182 183
f 138 183 141
f 138 141 140
f 138 140 139
f 141 183 142
f 142 183 184
f 142 184 185
f 142 185 186
f 142 186 187
f 142 187 188
f 142 188 143
f 143 188 144
f 144 188 189
f 144 189 231
f 144 231 190
f 145 190 191
f 145 191 146
f 146 191 192
f 146 192 147
f 147 192 193
f 148 194 195
f 149 196 197
f 149 197 150
f 150 197 198
f 150 198 199
f 150 199 151
f 152 199 244
f 152 244 200
f 152 200 165
f 153 201 156
f 153 202 246
f 153 246 201
f 154 155 202
f 155 175 202
f 156 203 204
f 156 204 157
f 156 201 245
f 156 245 203
f 157 204 205
f 157 205 158
f 158 205 206
f 158 206 159
f 159 206 212
f 159 212 164
f 160 164 212
f 160 212 207
f 160 207 208
f 160 208 161
f 161 208 209
f 161 209 162
f 162 209 256
f 162 256 210
f 162 210 163
f 163 210 257
f 163 257 211
f 165 200 213
f 165 213 166
f 166 213 214
f 166 214 167
f 167 215 216
f 167 216 168
f 167 214 215
f 168 216 217
f 168 217 169
f 169 172 171
f 169 171 170
f 169 217 218
f 169 218 172
f 172 218 219
f 172 219 173
f 173 219 174
f 174 220 221
f 174 221 175
f 174 219 220
f 175 221 202
f 176 211 177
f 177 211 178
f 178 211 222
f 178 222 179
f 179 223 180
f 179 222 224
f 179 224 223
f 180 223 225
f 180 225 181
f 181 184 183
f 181 183 182
f 181 225 226
f 181 226 184
f 184 226 227
f 184 227 185
f 185 227 186
f 186 227 228
f 186 228 229
f 186 229 187
f 187 229 230
f 187 230 188
f 188 230 189
f 189 230 278
f 189 278 231
f 190 231 232
f 190 232 191
f 191 232 192
f 192 233 234
f 192 234 235
f 192 235 236
f 192 236 193
f 192 232 237
f 192 237 233
f 193 236 238
f 193 238 196
f 193 196 195
f 193 195 194
f 196 238 197
f 197 239 240
f 197 240 241
f 197 241 198
f 197 238 242
f 197 242 243
f 197 243 239
f 198 241 199
f 199 241 244
f 200 244 259
f 200 259 213
f 201 246 287
f 201 287 245
f 202 221 246
f 203 247 248
f 203 248 204
f 203 245 249
f 203 249 247
f 204 248 205
f 205 248 250
f 205 250 251
f 205 251 206
f 206 251 258
f 206 258 212
f 207 212 258
f 207 258 252
f 207 252 253
f 207 253 208
f 208 253 209
f 209 254 255
f 209 255 256
f 209 253 254
f 210 256 297
f 210 297 257
f 211 257 222
f 213 259 299
f 213 299 260
f 213 260 214
f 214 260 300
f 214 300 261
f 214 261 262
f 214 262 215
f 215 262 263
f 215 263 216
f 216 263 264
f 216 264 217
f 217 264 265
f 217 265 218
f 218 265 266
f 218 266 219
f 219 266 267
f 219 267 220
f 220 267 268
f 220 268 221
f 221 268 287
f 221 287 246
f 222 269 271
f 222 271 224
f 222 257 297
f 222 297 269
f 223 270 272
f 223 272 225
f 223 224 271
f 223 271 270
f 225 272 273
f 225 273 226
f 226 273 274
f 226 274 227
f 227 274 275
f 227 275 228
f 228 275 276
f 228 276 229
f 229 276 319
f 229 319 277
f 229 277 230
f 230 277 320
f 230 320 278
f 231 278 232
f 232 278 237
f 233 237 279
f 233 279 280
f 233 280 281
f 233 281 234
f 234 281 282
f 234 282 235
f 235 282 286
f 235 286 242
f 235 242 238
f 235 238 236
f 237 278 279
f 239 243 283
f 239 283 284
f 239 284 285
f 239 285 240
f 240 285 259
f 240 259 241
f 241 259 244
f 242 286 283
f 242 283 243
f 245 287 291
f 245 291 249
f 247 288 289
f 247 289 248
f 247 249 288
f 248 289 250
f 249 290 288
f 249 291 334
f 249 334 290
f 250 289 251
f 251 292 298
f 251 298 258
f 251 289 292
f 252 293 253
f 252 258 293
f 253 293 254
f 254 293 294
f 254 294 255
f 255 294 295
f 255 295 341
f 255 341 296
f 255 296 297
f 255 297 256
f 258 298 293
f 259 285 299
f 260 299 343
f 260 343 300
f 261 301 302
f 261 302 303
f 261 303 262
f 261 300 301
f 262 303 263
f 263 303 304
f 263 304 305
f 263 305 264
f 264 305 306
f 264 306 265
f 265 306 307
f 265 307 266
f 266 307 308
f 266 308 267
f 267 308 268
f 268 308 309
f 268 309 291
f 268 291 287
f 269 297 296
f 269 296 310
f 269 310 311
f 269 311 271
f 270 312 313
f 270 313 272
f 270 271 311
f 270 311 312
f 272 313 314
f 272 314 273
f 273 314 315
f 273 315 274
f 274 315 316
f 274 316 275
f 275 316 276
f 276 316 317
f 276 317 318
f 276 318 319
f 277 319 358
f 277 358 320
f 278 320 279
f 279 321 322
f 279 322 280
f 279 320 358
f 279 358 321
f 280 322 323
f 280 323 281
f 281 323 324
f 281 324 282
f 282 324 328
f 282 328 286
f 283 286 328
f 283 328 325
f 283 325 326
f 283 326 284
f 284 326 327
f 284 327 285
f 285 327 343
f 285 343 299
f 288 329 289
f 288 290 330
f 288 330 329
f 289 331 332
f 289 332 292
f 289 329 333
f 289 333 331
f 290 334 368
f 290 368 330
f 291 309 335
f 291 335 334
f 292 332 370
f 292 370 373
f 292 373 336
f 292 336 298
f 293 298 336
f 293 336 337
f 293 337 338
f 293 338 339
f 293 339 294
f 294 339 340
f 294 340 295
f 295 340 377
f 295 377 341
f 296 341 342
f 296 342 310
f 300 343 344
f 300 344 301
f 301 344 380
f 301 380 345
f 301 345 346
f 301 346 302
f 302 346 347
f 302 347 303
f 303 347 304
f 304 347 305
f 305 348 349
f 305 349 306
f 305 347 348
f 306 349 350
f 306 350 307
f 307 350 308
f 308 350 309
f 309 350 335
f 310 342 351
f 310 351 311
f 311 351 312
f 312 351 313
f 313 352 353
f 313 353 314
f 313 351 352
f 314 353 354
f 314 354 315
f 315 354 316
f 316 354 317
f 317 354 355
f 317 355 318
f 318 355 356
f 318 356 397
f 318 397 357
f 318 357 358
f 318 358 319
f 321 359 360
f 321 360 322
f 321 358 357
f 321 357 359
f 322 360 323
f 323 360 361
f 323 361 362
f 323 362 324
f 324 362 366
f 324 366 328
f 325 328 366
f 325 366 363
f 325 363 364
f 325 364 326
f 326 364 327
f 327 364 365
f 327 365 344
f 327 344 343
f 329 330 367
f 329 367 333
f 330 368 404
f 330 404 367
f 331 369 406
f 331 406 407
f 331 407 370
f 331 370 332
f 331 333 371
f 331 371 369
f 333 367 403
f 333 403 371
f 334 335 368
f 335 350 372
f 335 372 368
f 336 373 407
f 336 407 406
f 336 406 374
f 336 374 337
f 337 374 375
f 337 375 338
f 338 375 409
f 338 409 376
f 338 376 340
f 338 340 339
f 340 376 411
f 340 411 377
f 341 377 342
f 342 377 378
f 342 378 351
f 344 365 379
f 344 379 380
f 345 381 346
f 345 380 413
f 345 413 381
f 346 381 382
f 346 382 347
f 347 382 383
f 347 383 384
f 347 384 385
f 347 385 348
f 348 385 417
f 348 417 418
f 348 418 386
f 348 386 349
f 349 386 350
f 350 386 387
f 350 387 388
f 350 388 372
f 351 378 389
f 351 389 390
f 351 390 391
f 351 391 352
f 352 391 423
f 352 423 424
f 352 424 392
f 352 392 353
f 353 392 354
f 354 392 393
f 354 393 394
f 354 394 395
f 354 395 355
f 355 395 396
f 355 396 356
f 356 396 428
f 356 428 397
f 357 397 398
f 357 398 359
f 359 398 399
f 359 399 360
f 360 399 361
f 361 399 362
f 362 400 402
f 362 402 366
f 362 399 400
f 363 401 364
f 363 366 401
f 364 401 365
f 365 401 379
f 366 402 401
f 367 404 437
f 367 437 403
f 368 372 388
f 368 388 404
f 369 405 406
f 369 371 405
f 370 407 373
f 371 408 405
f 371 403 436
f 371 436 408
f 374 406 405
f 374 405 375
f 375 405 410
f 375 410 441
f 375 441 409
f 376 409 442
f 376 442 411
f 377 411 389
f 377 389 378
f 379 401 412
f 379 412 413
f 379 413 380
f 381 414 383
f 381 383 382
f 381 413 443
f 381 443 414
f 383 415 416
f 383 416 384
f 383 414 444
f 383 444 415
f 384 416 447
f 384 447 448
f 384 448 417
f 384 417 385
f 386 418 448
f 386 448 447
f 386 447 419
f 386 419 387
f 387 419 420
f 387 420 388
f 388 420 437
f 388 437 404
f 389 411 442
f 389 442 421
f 389 421 422
f 389 422 390
f 390 422 452
f 390 452 453
f 390 453 423
f 390 423 391
f 392 424 453
f 392 453 452
f 392 452 425
f 392 425 393
f 393 425 426
f 393 426 394
f 394 426 455
f 394 455 427
f 394 427 396
f 394 396 395
f 396 427 456
f 396 456 428
f 397 428 398
f 398 429 399
f 398 428 429
f 399 430 431
f 399 431 400
f 399 429 432
f 399 432 430
f 400 431 458
f 400 458 460
f 400 460 433
f 400 433 402
f 401 402 433
f 401 433 434
f 401 434 435
f 401 435 412
f 403 437 464
f 403 464 436
f 405 438 410
f 405 408 439
f 405 439 440
f 405 440 438
f 408 436 439
f 409 441 468
f 409 468 442
f 410 438 441
f 412 435 443
f 412 443 413
f 414 443 469
f 414 469 444
f 415 444 470
f 415 470 445
f 415 445 446
f 415 446 416
f 416 446 447
f 417 448 418
f 419 447 446
f 419 446 420
f 420 446 449
f 420 449 464
f 420 464 437
f 421 442 468
f 421 468 450
f 421 450 451
f 421 451 422
f 422 451 452
f 423 453 424
f 425 452 451
f 425 451 426
f 426 451 454
f 426 454 477
f 426 477 455
f 427 455 478
f 427 478 456
f 428 456 432
f 428 432 429
f 430 457 480
f 430 480 481
f 430 481 458
f 430 458 431
f 430 432 459
f 430 459 457
f 432 456 478
f 432 478 459
f 433 460 481
f 433 481 480
f 433 480 461
f 433 461 434
f 434 461 462
f 434 462 435
f 435 462 469
f 435 469 443
f 436 463 439
f 436 464 484
f 436 484 463
f 438 440 465
f 438 465 466
f 438 466 441
f 439 463 467
f 439 467 440
f 440 467 465
f 441 466 487
f 441 487 468
f 444 469 489
f 444 489 470
f 445 471 446
f 445 470 471
f 446 471 472
f 446 472 473
f 446 473 449
f 449 473 464
f 450 468 474
f 450 474 451
f 451 474 475
f 451 475 476
f 451 476 454
f 454 476 477
f 455 477 494
f 455 494 478
f 457 479 480
f 457 459 479
f 458 481 460
f 459 482 479
f 459 478 494
f 459 494 482
f 461 480 479
f 461 479 462
f 462 479 483
f 462 483 489
f 462 489 469
f 463 484 488
f 463 488 467
f 464 473 484
f 465 485 487
f 465 487 466
f 465 467 486
f 465 486 498
f 465 498 485
f 467 488 499
f 467 499 486
f 468 487 474
f 470 490 471
f 470 489 500
f 470 500 490
f 471 490 491
f 471 491 472
f 472 491 488
f 472 488 473
f 473 488 484
f 474 487 485
f 474 485 475
f 475 485 492
f 475 492 476
f 476 492 493
f 476 493 477
f 477 493 503
f 477 503 494
f 479 495 483
f 479 482 496
f 479 496 497
f 479 497 495
f 482 494 496
f 483 495 489
f 485 498 492
f 486 499 504
f 486 504 498
f 488 491 499
f 489 495 500
f 490 500 501
f 490 501 491
f 491 501 504
f 491 504 499
f 492 498 504
f 492 504 502
f 492 502 503
f 492 503 493
f 494 503 496
f 495 497 501
f 495 501 500
f 496 503 502
f 496 502 497
f 497 502 501
f 501 502 504

