mtllib material.mtl
usemtl 203,154,59
v 1.50000000 1.50000000 -31.50000000
v 1.50000000 1.50000000 -31.50000000
v 1.50000000 1.50000000 -31.50000000
v 1.50000000 1.50000000 -1.50000000
v 1.50000000 1.50000000 -1.50000000
v 1.50000000 1.50000000 -1.50000000
v 1.50000000 31.50000000 -31.50000000
v 1.50000000 31.50000000 -31.50000000
v 1.50000000 31.50000000 -31.50000000
v 1.50000000 31.50000000 -1.50000000
v 1.50000000 31.50000000 -1.50000000
v 1.50000000 31.50000000 -1.50000000
v 31.50000000 1.50000000 -31.50000000
v 31.50000000 1.50000000 -31.50000000
v 31.50000000 1.50000000 -31.50000000
v 31.50000000 1.50000000 -1.50000000
v 31.50000000 1.50000000 -1.50000000
v 31.50000000 1.50000000 -1.50000000
v 31.50000000 31.50000000 -31.50000000
v 31.50000000 31.50000000 -31.50000000
v 31.50000000 31.50000000 -31.50000000
v 31.50000000 31.50000000 -1.50000000
v 31.50000000 31.50000000 -1.50000000
v 31.50000000 31.50000000 -1.50000000
vn -0.00000000 -0.00000000 -0.10000000
vn -0.00000000 -0.10000000 0.00000000
vn -0.10000000 0.00000000 0.00000000
vn -0.00000000 -0.10000000 0.00000000
vn -0.10000000 0.00000000 0.00000000
vn 0.00000000 0.00000000 0.10000000
vn 0.00000000 0.10000000 -0.00000000
vn -0.10000000 0.00000000 0.00000000
vn -0.00000000 -0.00000000 -0.10000000
vn -0.10000000 0.00000000 0.00000000
vn 0.00000000 0.00000000 0.10000000
vn 0.00000000 0.10000000 -0.00000000
vn -0.00000000 -0.00000000 -0.10000000
vn 0.10000000 -0.00000000 -0.00000000
vn -0.00000000 -0.10000000 0.00000000
vn -0.00000000 -0.10000000 0.00000000
vn 0.00000000 0.00000000 0.10000000
vn 0.10000000 -0.00000000 -0.00000000
vn -0.00000000 -0.00000000 -0.10000000
vn 0.00000000 0.10000000 -0.00000000
vn 0.10000000 -0.00000000 -0.00000000
vn 0.00000000 0.10000000 -0.00000000
vn 0.10000000 -0.00000000 -0.00000000
vn 0.00000000 0.00000000 0.10000000
vt 1.50000000 -1.50000000
vt 0.00000000 -1.50000000
vt 3.00000000 -1.50000000
vt 0.00000000 1.50000000
vt 3.00000000 1.50000000
vt -1.50000000 -1.50000000
vt 3.00000000 -1.50000000
vt 0.00000000 -1.50000000
vt 1.50000000 1.50000000
vt 0.00000000 1.50000000
vt -1.50000000 1.50000000
vt 3.00000000 1.50000000
vt -1.50000000 -1.50000000
vt 0.00000000 -1.50000000
vt 3.00000000 -1.50000000
vt 3.00000000 1.50000000
vt 1.50000000 -1.50000000
vt 0.00000000 1.50000000
vt -1.50000000 1.50000000
vt 0.00000000 -1.50000000
vt 3.00000000 -1.50000000
vt 0.00000000 1.50000000
vt 3.00000000 1.50000000
vt 1.50000000 1.50000000
f 13/13/13 1/1/1 19/19/19
f 19/19/19 1/1/1 9/9/9
f 16/16/16 4/4/4 15/15/15
f 15/15/15 4/4/4 2/2/2
f 5/5/5 10/10/10 3/3/3
f 3/3/3 10/10/10 8/8/8
f 12/12/12 22/22/22 7/7/7
f 7/7/7 22/22/22 20/20/20
f 23/23/23 18/18/18 21/21/21
f 21/21/21 18/18/18 14/14/14
f 24/24/24 11/11/11 17/17/17
f 17/17/17 11/11/11 6/6/6

